<?xml version="1.0" encoding="utf-8"?>
<!-- Generator: Adobe Illustrator 27.0.0, SVG Export Plug-In . SVG Version: 6.00 Build 0)  -->
<svg version="1.1" id="Layer_1" xmlns="http://www.w3.org/2000/svg" xmlns:xlink="http://www.w3.org/1999/xlink" x="0px" y="0px"
	 viewBox="0 0 712.19 638.38" style="enable-background:new 0 0 712.19 638.38;" xml:space="preserve">
<style type="text/css">
	.st0{fill:#ED1C24;}
	.st1{fill:#FFCD05;}
	.st2{fill:#FFFFFF;}
</style>
<path d="M575.54,10.23c0-8.77-1.46-10.23-10.08-10.23c-70.34,0-140.69,0-211.03,0C284.09,0,213.74,0,143.4,0
	c-9.69,0-10.89,1.19-10.89,11.01c0,100.93-0.07,201.86,0.02,302.79c0.04,47.67,15.04,90.36,44.94,127.35
	c39.74,49.16,91.56,76.68,154.47,82.65c55.32,5.25,106.69-6.95,152.16-39.21c57.95-41.11,90.57-97.11,91.23-168.92
	C576.26,213.87,575.56,112.05,575.54,10.23L575.54,10.23z M566.03,313.44c-1.4,62.63-26.87,114.44-76.22,152.49
	c-70.26,54.16-148.03,62.94-228.48,26.62c-64.62-29.17-104.39-80.41-116.89-151.17c-1.83-10.38-2.47-21.09-2.51-31.64
	c-0.22-73.17-0.14-95.33-0.14-168.51c0-7.56,2.6-9.86,11-9.86c104.97,0,209.95,0,314.92,0.01c29.16,0,58.32,0,87.48,0
	c8.78,0,11.01,2.21,11.01,10.9c0.01,38,0,24.99,0,62.99h-0.04c0,36.06,0.66,72.13-0.15,108.16L566.03,313.44z"/>
<path class="st0" d="M376.48,412.59c-1.9-4.57-3.76-8.72-5.28-13c-0.35-1,0.54-2.42,0.8-3.66c0.55-2.59,2.13-5.57,1.35-7.68
	c-1.21-3.28-1.03-5.97-0.13-9.14c1.48-5.21-1-8.18-6.56-8.35c-3.01-0.09-6.02-0.02-9.75-0.02c0-11.63,0.02-22.62,0-33.61
	c-0.02-9.19,0.02-18.38-0.22-27.56c-0.09-3.43,1.08-5.31,4.33-6.52c18.92-7.04,38.23-9.29,58.18-5.53c4.52,0.85,6.59,2.87,7.45,7.6
	c4.82,26.64,10,53.21,15.08,79.8c1.09,5.72,0.85,6.14-4.93,5.91c-21.46-0.83-40.29,6.02-56.93,19.34c-0.92,0.74-1.93,1.37-3.4,2.4
	L376.48,412.59z"/>
<path class="st0" d="M351.27,370.77c-4,0-7.03-0.11-10.05,0.02c-5.29,0.23-7.57,3.16-6.24,8.21c0.78,2.98,1.22,5.56-0.17,8.7
	c-0.88,1.98-0.43,5.46,0.85,7.26c1.89,2.67,1.46,4.68,0.36,7.16c-1.47,3.33-2.84,6.7-4.43,10.48c-3.89-2.82-7.26-5.42-10.77-7.79
	c-15.1-10.18-31.76-14.82-49.98-13.97c-5.08,0.24-5.58-0.48-4.64-5.46c5.16-27.22,10.35-54.43,15.46-81.66
	c0.61-3.24,2.07-5.02,5.47-5.76c20.88-4.54,41.1-2.16,60.79,5.65c1.45,0.58,3.21,2.77,3.22,4.23
	C351.35,328.5,351.28,349.17,351.27,370.77L351.27,370.77z"/>
<path class="st0" d="M433.68,313.33c5.15,0.74,9.41,1,13.41,2.14c1.29,0.37,2.41,2.95,2.79,4.7c5.45,25.11,10.76,50.25,16.1,75.38
	c0.99,4.64,1.89,9.3,3.01,13.9c0.78,3.23-0.41,4.24-3.51,3.87c-6.99-0.84-13.96-1.8-20.98-2.33c-20.48-1.54-40.27,1.48-59.24,9.52
	c-0.98,0.41-1.99,0.76-3,1.05c-0.21,0.06-0.52-0.25-1.5-0.77c0.88-1.16,1.53-2.39,2.51-3.23c17.23-14.78,37.04-21.62,59.8-19.23
	c1.07,0.11,2.13,0.2,3.2,0.3c3.83,0.37,4.83-1.29,4.05-4.96c-4.69-21.98-9.26-43.99-13.85-66c-0.92-4.42-1.73-8.85-2.8-14.35
	L433.68,313.33z"/>
<path class="st0" d="M326.28,421.77c-2.94-1.08-5.9-2.11-8.81-3.26c-20.47-8.02-41.67-9.28-63.26-6.83c-3.34,0.38-6.67,0.94-10,1.39
	c-5.54,0.74-6.02,0.25-4.87-5.13c4.38-20.5,8.78-40.99,13.16-61.48c1.76-8.23,3.8-16.41,5.11-24.71c0.79-4.99,3.04-7.33,7.97-7.44
	c2.56-0.06,5.12-0.39,8.36-0.66c-0.25,2.23-0.31,3.98-0.66,5.67c-5.03,24.27-10.11,48.52-15.14,72.78c-1.32,6.38-0.73,7.1,5.67,6.34
	c21.48-2.52,40.61,3.14,57.61,16.33c2.14,1.66,4.06,3.61,6.08,5.42l-1.23,1.58H326.28z"/>
<path class="st0" d="M382.14,430.73c8.86-3.03,17.55-6.83,26.62-8.93c21.51-4.98,43.12-3.83,64.6,0.89
	c4.41,0.97,5.88-0.36,4.88-4.73c-4.24-18.47-8.56-36.92-12.86-55.38c-2.05-8.79-4.11-17.57-6.13-26.37c-0.3-1.3-0.35-2.66-0.63-4.94
	c4.55,0.43,8.68,0.4,12.54,1.39c1.52,0.39,3.16,2.91,3.55,4.71c3.34,15.23,6.42,30.51,9.54,45.78c2.94,14.38,5.76,28.78,8.76,43.14
	c1.45,6.94,0.83,7.7-5.94,6.39c-29.33-5.68-58.79-8.12-88.51-3.21c-5.33,0.88-10.63,1.94-15.94,2.91c-0.17-0.56-0.33-1.11-0.5-1.67
	L382.14,430.73z"/>
<path class="st0" d="M249.39,331.76c-0.31,2.04-0.47,3.82-0.86,5.54c-6.08,26.38-12.17,52.75-18.29,79.11
	c-1.43,6.16-0.25,7.2,5.78,5.99c30.08-6.06,59.6-5.76,87.79,8.35c0.51,0.25,0.98,0.59,1.27,1.6c-3.93-0.71-7.87-1.38-11.8-2.13
	c-25.42-4.85-50.85-4.23-76.29-0.15c-5.88,0.94-11.75,2-17.62,3.01c-4.59,0.8-5.67-0.15-4.74-4.8c2.55-12.74,5.28-25.45,7.9-38.18
	c3.45-16.77,6.95-33.53,10.26-50.33c1.3-6.59,1.77-7.36,8.41-7.98C243.74,331.56,246.31,331.75,249.39,331.76L249.39,331.76z"/>
<g>
	<path class="st1" d="M307.21,289.3c-0.1-14.35,5.34-26.09,15.84-34.94c24.59-20.72,59.07-13.55,73.49,15.19
		c2.46,4.91,3.02,10.8,4.29,16.27c0.59,2.53-0.3,3.96-3.31,4.01c-13.89,0.26-27.27,3.05-40.22,8.17c-1.91,0.75-4.63,0.76-6.54,0
		c-13.24-5.21-26.93-7.96-41.14-8.28C309.03,289.71,308.44,289.52,307.21,289.3L307.21,289.3z"/>
	<path class="st1" d="M215.34,288.63c1.65-0.34,3.31-0.98,4.96-0.99c24.49-0.07,48.98-0.05,73.48-0.05c0.92,0,1.9-0.1,2.73,0.19
		c0.75,0.26,1.34,1,2,1.53c-0.66,0.69-1.22,1.74-2.02,2c-1.11,0.36-2.42,0.16-3.64,0.16c-23.88,0-47.76,0.03-71.64-0.01
		c-1.95,0-3.91-0.44-5.86-0.67c0-0.72,0-1.43,0-2.15L215.34,288.63z"/>
	<path class="st1" d="M493.69,289c-4.73,3.43-80.95,3.21-84.75-0.1c2.19-0.54,3.8-1.27,5.41-1.27c24.62-0.07,49.24-0.06,73.85,0.01
		c1.5,0,3,0.72,5.48,1.36H493.69z"/>
	<path class="st1" d="M402.64,263.63c-0.16-1.6-0.71-2.93-0.27-3.68c0.55-0.95,1.88-1.48,2.93-2.09
		c21.01-12.15,42.02-24.29,63.04-36.42c0.79-0.46,1.59-1.03,2.45-1.22c0.91-0.19,1.91,0.03,2.87,0.07c-0.28,0.93-0.42,1.94-0.9,2.75
		c-0.36,0.6-1.15,0.99-1.8,1.37c-21.56,12.42-43.12,24.82-64.69,37.22c-0.91,0.53-1.84,1.02-3.63,2.01V263.63z"/>
	<path class="st1" d="M235.98,219.45c3.48,1.92,6.85,3.71,10.15,5.61c18.89,10.91,37.77,21.84,56.65,32.77
		c0.53,0.31,1.24,0.49,1.54,0.95c0.66,1,1.11,2.14,1.65,3.22c-1.16,0-2.55,0.39-3.45-0.1c-5.51-2.96-10.92-6.1-16.34-9.22
		c-16.25-9.37-32.49-18.75-48.72-28.16c-1.04-0.6-2.05-1.35-2.83-2.24c-0.37-0.42-0.34-1.42-0.12-2.03c0.14-0.39,0.96-0.54,1.48-0.8
		L235.98,219.45z"/>
	<path class="st1" d="M286.14,169.34c0.97,1.26,2.1,2.44,2.89,3.81c10.01,17.3,19.97,34.64,29.95,51.96
		c2.36,4.1,4.83,8.15,7.03,12.34c0.58,1.1,0.31,2.65,0.42,3.99c-1.23-0.77-2.98-1.24-3.63-2.36c-9.88-16.86-19.63-33.8-29.39-50.72
		c-2.82-4.89-5.71-9.74-8.37-14.72c-0.57-1.07-0.32-2.59-0.44-3.91C285.11,169.6,285.63,169.47,286.14,169.34L286.14,169.34z"/>
	<path class="st1" d="M383.14,242.28c-0.92-0.53-1.88-0.83-1.87-1.11c0.02-1.13,0.06-2.42,0.59-3.37c4.04-7.2,8.2-14.33,12.32-21.49
		c8.16-14.17,16.26-28.36,24.53-42.46c0.95-1.62,2.84-2.7,4.29-4.03c-0.37,2-0.24,4.29-1.19,5.96
		c-12.03,21.1-24.22,42.12-36.38,63.15C384.78,240.06,383.95,241.1,383.14,242.28L383.14,242.28z"/>
	<path class="st1" d="M355.84,192.95c0,12.26,0.06,24.51-0.08,36.77c-0.02,1.46-1.18,2.91-1.81,4.37c-0.58-1.36-1.65-2.71-1.66-4.07
		c-0.1-24.82-0.06-49.64-0.06-74.46c0-0.31-0.1-0.66,0.02-0.91c0.51-1.1,1.08-2.18,1.63-3.27c0.65,1.14,1.85,2.27,1.86,3.42
		c0.13,12.72,0.08,25.43,0.08,38.15L355.84,192.95L355.84,192.95z"/>
	<path class="st1" d="M298.44,276.62c-8.65-2.32-16.75-4.49-24.84-6.65c-4.41-1.18-8.87-2.23-13.23-3.59
		c-1.09-0.34-1.87-1.65-2.79-2.52c1.28-0.35,2.7-1.25,3.82-0.96c12.25,3.12,24.46,6.39,36.64,9.77c0.98,0.27,1.65,1.68,2.46,2.56
		C299.73,275.75,298.97,276.27,298.44,276.62L298.44,276.62z"/>
	<path class="st1" d="M408.12,278.35c-0.2-1.07-0.77-2.23-0.51-3.17s1.2-2.1,2.09-2.38c3.92-1.24,7.94-2.2,11.92-3.25
		c8.4-2.21,16.8-4.48,25.23-6.55c1.04-0.26,2.33,0.5,3.51,0.79c-0.83,0.91-1.5,2.36-2.5,2.64c-12.35,3.41-24.75,6.66-37.13,9.94
		c-0.3,0.08-0.59,0.17-0.88,0.26c-0.58,0.58-1.15,1.15-1.73,1.73V278.35z"/>
	<path class="st1" d="M315.64,249.01c-0.48,0.65-0.93,1.72-1.33,1.7c-0.94-0.04-2.1-0.34-2.76-0.97
		c-3.54-3.37-6.96-6.87-10.42-10.34c-5.72-5.74-11.49-11.43-17.09-17.28c-0.65-0.68-0.38-2.22-0.54-3.37
		c1.05,0.23,2.45,0.11,3.1,0.75c9.25,9.12,18.4,18.35,27.57,27.56C314.69,247.58,315.07,248.25,315.64,249.01L315.64,249.01z"/>
	<path class="st1" d="M425.55,220.37c-0.85,1-1.49,1.86-2.24,2.61c-8.75,8.77-17.47,17.56-26.32,26.22
		c-0.87,0.85-2.49,0.92-3.77,1.36c0.38-1.27,0.37-2.91,1.19-3.75c8.75-8.99,17.61-17.88,26.51-26.72c0.75-0.75,2.04-1.1,3.14-1.28
		C424.44,218.75,425,219.77,425.55,220.37z"/>
	<path class="st1" d="M328.28,191.49c1.37,2.21,2.24,3.11,2.54,4.17c3.4,12.35,6.75,24.72,9.99,37.12c0.23,0.88-0.6,2.03-0.94,3.05
		c-0.93-0.73-2.45-1.29-2.7-2.2c-3.48-12.5-6.82-25.03-10.05-37.59c-0.25-0.97,0.53-2.2,1.18-4.55H328.28z"/>
	<path class="st1" d="M381.33,194.97c-1.22,4.5-2.35,8.61-3.45,12.74c-2.24,8.4-4.37,16.82-6.77,25.17
		c-0.34,1.19-1.93,2.01-2.94,3.01c-0.26-1.33-1.02-2.78-0.71-3.97c3.02-11.65,6.21-23.26,9.37-34.88c0.24-0.88,0.43-1.86,0.97-2.55
		c0.47-0.6,1.45-1.27,2.08-1.16C380.49,193.43,380.94,194.48,381.33,194.97L381.33,194.97z"/>
</g>
<g>
	<path d="M350.64,474.21c-0.65-1.55-1.28-3.12-1.96-4.66c-5.77-13.09-11.64-26.15-17.23-39.32c-0.79-1.86-1-4.58-0.24-6.37
		c3.28-7.72,6.96-15.28,10.68-22.8c0.53-1.08,2-2.18,3.17-2.36c2.37-0.37,4.84-0.11,8.03-0.11c0,5.27,0.13,10.25-0.12,15.22
		c-0.04,0.88-1.53,1.95-2.58,2.47c-7.97,3.94-8.79,12.72-1.88,18.17c1.71,1.34,3.46,3.83,3.53,5.85c0.34,10.55,0.15,21.11,0.1,31.67
		c0,0.68-0.34,1.36-0.52,2.04c-0.32,0.07-0.65,0.13-0.97,0.2L350.64,474.21z"/>
	<path d="M356.36,473.92c-0.17-1.28-0.47-2.56-0.47-3.84c-0.06-9.48-0.06-18.96-0.08-28.43c0-3.25,1.04-5.67,4-7.63
		c5.35-3.54,6.19-10.67,1.54-15.06c-2.6-2.46-3.09-4.92-2.99-8.06c0.12-3.92,0.03-7.86,0.03-11.67c4.99-1.54,7.3-0.38,8.98,4.34
		c2.33,6.57,6.14,12.61,8.82,19.08c0.92,2.22,1.4,5.6,0.36,7.52c-6.95,12.75-13.06,25.82-17.3,39.74c-0.44,1.46-1.18,2.83-1.79,4.24
		C357.09,474.08,356.73,474,356.36,473.92L356.36,473.92z"/>
	<path d="M340.32,376.16h27.7c-0.27,8.29-1.15,9.2-8.66,9.21c-3.66,0-7.31,0-10.97,0C341.42,385.37,340.24,384.04,340.32,376.16z"/>
	<path d="M339.58,390.23h28.76c0.19,0.41,0.38,0.82,0.56,1.23c-1.57,0.66-3.11,1.83-4.7,1.9C343,394.28,340.95,393.98,339.58,390.23
		L339.58,390.23z"/>
</g>
<g>
	<path d="M553.86,523.66c0-13.14,0.04-12.99-12.64-9.53c-50.81,13.86-102.55,21.52-154.97,23.83
		c-76.32,3.36-151.49-5.22-225.35-25.46c-7.83-2.15-9.67-0.58-9.52,7.68c0.42,22.97,0.05,45.96,0,68.94
		c-0.03,15.23,3.7,20.83,17.79,24.53c56.83,14.92,114.41,24.24,173.21,24.74c19.23-1.06,38.53-1.4,57.68-3.31
		c48.55-4.85,96.47-14.48,144.78-21.13c7.02-0.97,9.32-3.87,9.2-11.32c-0.44-26.31-0.17-52.63-0.17-78.95L553.86,523.66z"/>
	<path d="M132.47,414.57c2.52-0.56,7.27,0.71,7.1-4.56c-0.17-5.47-4.52-4.81-7.92-5.13c-15.26-1.43-30.54-2.77-45.81-4.16
		c-25.82-2.35-51.64-4.71-79.18-7.23c7.11,11.98,13.38,22.56,19.66,33.13c5.46,9.2,5.28,17.93-1.22,26.71
		C16.87,464.44,9.06,475.88,0,488.69c22.37,4.78,43.61,9.25,64.81,13.88c12.33,2.69,13.38,2.28,14.19-10.76
		c0.96-15.53,1.13-31.11,1.87-46.66c0.84-17.62,5.4-22.59,22.16-25.26c9.85-1.57,19.7-3.16,29.44-5.33L132.47,414.57z"/>
	<path d="M698.92,476.14c-5.56-6.19-9.94-13.49-15.35-19.84c-9.85-11.56-10.59-19.15-1.99-31.59c6.6-9.55,13.05-19.18,18.55-31.03
		c-15.9,1.47-30.62,2.86-45.35,4.19c-26.25,2.37-52.51,4.66-78.75,7.13c-3.22,0.3-7.62-0.53-7.47,5.4c0.15,5.85,4.4,4.6,7.69,5.13
		c8.78,1.42,17.54,3.03,26.35,4.25c19.49,2.71,24.18,8.15,24.27,28.85c0.06,15.19,0.1,30.38-0.05,45.57
		c-0.05,4.61,0.29,7.73,6.08,7.58c21.45-0.53,42.57-2.12,62.44-11.96C702.6,486.22,705.4,483.34,698.92,476.14L698.92,476.14z"/>
	<path d="M170.22,486.9c9.02-1.77,18.29-2.86,26.46-7.89c2.06-1.27,5.11-1.67,4.73-5.03c-0.35-3.01-2.7-3.85-5.38-4.42
		c-35.41-7.56-70.81-15.22-106.94-23.02c0,30.06-0.09,59.28,0.07,88.51c0.04,6.24,3.62,10.05,9.49,11.76
		c12.27,3.57,24.54,7.18,36.71,11.12c6.87,2.22,8.62-0.2,8.29-7.22c-0.51-10.72-0.51-21.5-0.06-32.23
		C144.52,496.42,149.5,490.96,170.22,486.9L170.22,486.9z"/>
	<path d="M511,470.02c-2.22,0.49-5.26,0.17-5.8,3.73c-0.65,4.24,2.8,4.61,5.2,5.82c11.08,5.58,23.37,6.13,35.08,9.09
		c14.87,3.76,19.6,10.26,19.21,25.93c-0.37,14.75-0.92,29.49,0.38,45.3c14.28-4.16,27.93-8.06,41.54-12.13
		c7.27-2.17,11.64-7.18,11.67-15.22c0.12-28.15,0.05-56.3,0.05-85.83c-36.4,7.89-71.87,15.55-107.32,23.31L511,470.02z"/>
	<path d="M612.92,428.91c-13.18-2.7-26.34-5.54-39.49-8.36c-2.53-0.54-5.42-1.29-5.56,2.61c-0.26,7.74-0.2,15.5,0,23.25
		c0.08,3.1,2.52,3.02,5.51,2.63c13.37-3.27,27.48-6.72,41.59-10.16c3.06-0.75,3.72-2.9,3.34-5.81
		C617.87,429.72,615.48,429.43,612.92,428.91L612.92,428.91z"/>
	<path d="M132.4,420.21c-12.39,2.87-24.77,5.85-37.23,8.36c-3.71,0.75-5.85,1.83-5.75,6.12c0.11,4.7,3.36,4.83,6.54,5.5
		c9.68,2.06,19.31,4.39,29,6.4c14.2,2.95,14.27,7.14,14.12-11.47c0-2.95-0.26-5.93,0.06-8.84c0.63-5.66-1.74-7.23-6.74-6.08
		L132.4,420.21z"/>
	<path d="M193.31,489.05c-10.45,3.34-21.16,5.79-31.76,8.62c-2.31,0.62-5.57,0.28-5.79,3.65c-0.24,3.7,3.16,3.19,5.4,3.79
		c10.92,2.92,22.11,5.04,32.69,8.95c8.12,3,9.09-0.11,8.38-7.03c-0.19-1.82-0.03-3.69-0.03-5.53h0.04c0-1.84-0.2-3.72,0.03-5.53
		c1.04-8.05-2.15-9.11-8.97-6.93L193.31,489.05z"/>
	<path d="M549.95,501.24c-0.3-2.75-2.83-2.86-4.9-3.41c-13.04-3.46-26.07-6.98-39.69-10.63v29.4c13.81-3.94,27.09-7.74,40.38-11.49
		C547.83,504.52,550.28,504.18,549.95,501.24z"/>
</g>
<g>
	<path class="st2" d="M191.24,551.01l-9.57,27.92l-7.3-2.5l9.57-27.92L191.24,551.01z"/>
	<path class="st2" d="M201.94,554.42l8.3,19.33l4.44-15.74l7.43,2.09l-8.02,28.41l-6.63-1.87l-8.31-19.43l-4.46,15.82l-7.35-2.08
		l8.02-28.41l6.59,1.86L201.94,554.42z"/>
	<path class="st2" d="M257.02,576.32c-1.29-1.28-3.55-3.5-7.82-4.34c-7.12-1.41-9.87,3.92-10.47,6.96c-0.84,4.28,1.03,8.65,6.3,9.68
		c1.3,0.26,2.27,0.23,3.16,0.18l0.67-3.42l-3.41-0.67l1.15-5.82l10.02,1.98l-2.74,13.9c-1.61,0.35-2.73,0.57-4.34,0.7
		c-1.99,0.14-4.53,0.08-7.24-0.45c-7.38-1.46-13.33-7.29-11.27-17.73c0.76-3.85,2.82-8.24,6.27-10.32c4.24-2.54,7.89-2.27,11.26-1.6
		c5.05,1,8.21,3.13,9.79,4.11l-1.35,6.84L257.02,576.32z"/>
	<path class="st2" d="M271.67,599.95c-9.92-1.41-13.32-9.51-12.24-17.07c1.08-7.55,6.59-14.34,16.51-12.93
		c9.66,1.38,13.37,9.12,12.25,17.02c-1.14,8.03-6.93,14.34-16.52,12.97V599.95z M272.74,592.44c4.23,0.6,7.04-2.21,7.66-6.57
		c0.61-4.32-1.3-7.8-5.53-8.4c-4.16-0.59-7.03,2.13-7.65,6.53c-0.63,4.4,1.37,7.86,5.52,8.45V592.44z"/>
	<path class="st2" d="M303.57,573.61c6.4,0.58,9.13,2.71,10.86,4.66c2.21,2.48,3.88,6.61,3.39,12c-0.63,6.9-4.01,9.88-5.84,11.25
		c-3.18,2.38-7.57,1.81-8.29,1.75l-13.37-1.21l2.67-29.4L303.57,573.61L303.57,573.61z M298.56,596.66l3.28,0.3
		c2.75,0.25,7.48,0.02,8.19-7.79c0.71-7.82-3.86-9.37-6.61-9.62l-3.28-0.3L298.56,596.66z"/>
	<path class="st2" d="M336.41,575.92l5.08,16.43l6.34-16.26l5.52,0.08l5.73,16.44l5.81-16.26l7.9,0.12l-11.53,29.74l-4.46-0.07
		l-6.39-17.5l-7.07,17.29l-4.5-0.07l-10.4-30.07l7.98,0.12L336.41,575.92z"/>
	<path class="st2" d="M394.17,598.99l0.22,5.92l-19.27,0.7l-1.07-29.5l18.97-0.69l0.21,5.93l-11.26,0.41l0.2,5.4l10.73-0.39
		l0.22,5.93l-10.73,0.39l0.23,6.32L394.17,598.99L394.17,598.99z"/>
	<path class="st2" d="M430.56,572.42l0.65,7.17l-9.34,0.84l2,22.23l-7.68,0.69l-2-22.23l-9.34,0.84l-0.65-7.17l26.37-2.38
		L430.56,572.42z"/>
	<path class="st2" d="M445.42,570.48c6.83-0.89,9.71,4.58,10.15,7.91c0.65,4.97-2.24,7.11-3.21,7.85c1.55,0.81,2.42,1.27,5.05,5.98
		l3.38,6.02l-8.21,1.07l-2.66-4.93c-3.02-5.59-4.37-5.76-6.66-5.46l-0.86,0.11l1.49,11.42l-7.65,1l-3.81-29.27l13.01-1.7
		L445.42,570.48z M440.79,576.8l0.92,7.05l1.65-0.21c3.64-0.47,4.79-1.33,4.43-4.05s-1.97-3.44-5.39-2.99l-1.61,0.21L440.79,576.8z"
		/>
	<path class="st2" d="M465.24,567.56l2.38,13.79c1.04,6.02,3.87,7.96,7.18,7.39c3.24-0.56,5.3-3.31,4.26-9.32l-2.38-13.84l7.6-1.31
		l2.77,16.07c1.81,10.49-5.37,14.73-10.99,15.7c-5.63,0.97-13.85-0.62-15.65-11.1l-2.77-16.07L465.24,567.56z"/>
	<path class="st2" d="M506.61,568.76c-1.69-0.85-4.95-2.39-8.17-1.71c-2.07,0.44-2.42,1.71-2.2,2.74c0.25,1.19,1.17,1.67,3.52,2.38
		c5.57,1.67,9.33,2.98,10.39,8.01c1.17,5.5-2.1,9.62-7.61,10.79c-0.7,0.15-4.22,0.89-9.29-0.44l-1.5-7.08
		c1.62,0.73,5,2.24,8.33,1.54c3-0.63,2.68-2.48,2.62-2.78c-0.36-1.71-2.34-2.27-4.58-2.82c-3.88-0.96-8.02-2.63-9.11-7.79
		c-0.95-4.48,1.08-8.96,7.26-10.27c4.7-0.99,8.31,0.38,8.91,0.66L506.61,568.76L506.61,568.76z"/>
	<path class="st2" d="M532.29,553.25l1.72,6.99l-9.11,2.24l5.34,21.67l-7.49,1.85l-5.34-21.67l-9.11,2.24l-1.72-6.98l25.7-6.34
		L532.29,553.25z"/>
</g>
<g>
	<path class="st2" d="M171.53,90.09c-1.38-0.95-4.06-2.72-7.13-2.72c-1.98,0-2.54,0.95-2.54,1.8c0,0.99,0.74,1.52,2.75,2.47
		c4.76,2.26,7.94,3.92,7.94,8.08c0,4.55-3.77,7.27-9.03,7.27c-0.67,0-4.02,0-8.4-1.9v-5.86c1.34,0.85,4.13,2.61,7.3,2.61
		c2.86,0,2.93-1.52,2.93-1.76c0-1.41-1.69-2.19-3.63-3c-3.35-1.41-6.81-3.42-6.81-7.69c0-3.7,2.72-6.91,8.61-6.91
		c4.48,0,7.51,1.69,8.01,2.01v5.61L171.53,90.09z"/>
	<path class="st2" d="M198.63,104.87c-3.14,1.62-6.28,2.12-9.42,2.12c-8.43,0-13.51-4.97-13.51-12.28c0-8.43,6.42-12.24,13.62-12.24
		c4.02,0,7.3,1.13,9.21,1.8v6.35c-1.34-0.81-4.02-2.58-7.58-2.58c-4.09,0-7.9,2.58-7.9,6.77c0,3.63,3.1,6.6,7.51,6.6
		c3.85,0,6.67-1.69,8.08-2.58v6.03L198.63,104.87z"/>
	<path class="st2" d="M210.66,97.35v9.31h-7.2V82.78h7.2v8.78h10.83v-8.78h7.2v23.88h-7.2v-9.31H210.66z"/>
	<path class="st2" d="M246.68,106.98c-9.35,0-13.55-6.1-13.55-12.28s4.2-12.24,13.55-12.24s13.55,5.79,13.55,12.24
		S255.71,106.98,246.68,106.98z M246.68,100.84c3.99,0,6.21-2.58,6.21-6.14s-2.22-6.1-6.21-6.1s-6.21,2.5-6.21,6.1
		S242.76,100.84,246.68,100.84z"/>
	<path class="st2" d="M276.71,106.98c-9.35,0-13.55-6.1-13.55-12.28s4.2-12.24,13.55-12.24s13.55,5.79,13.55,12.24
		S285.74,106.98,276.71,106.98z M276.71,100.84c3.99,0,6.21-2.58,6.21-6.14s-2.22-6.1-6.21-6.1s-6.21,2.5-6.21,6.1
		S272.79,100.84,276.71,100.84z"/>
	<path class="st2" d="M301.94,82.78v18.17h10.94v5.72h-18.13V82.79h7.2L301.94,82.78z"/>
	<path class="st2" d="M338.14,94.92v5.75h-11.29v-5.75H338.14z"/>
	<path class="st2" d="M361.11,82.78v10.69l8.64-10.69h7.83l-8.89,11.18l10.34,12.7h-8.78l-9.14-11.18v11.18h-7.2V82.78H361.11
		L361.11,82.78z"/>
	<path class="st2" d="M388.7,101.83l-1.98,4.83h-7.37l10.55-23.88h7.97l10.51,23.88h-7.37l-1.94-4.83H388.7L388.7,101.83z
		 M397.41,97.67l-3.49-8.71l-3.53,8.71H397.41z"/>
	<path class="st2" d="M414.28,82.78l4.97,13.23l5.68-13.23h5.15l5.57,13.23l5.19-13.23h7.37l-10.34,24.2h-4.16L427.5,92.9
		l-6.35,14.08h-4.2l-10.12-24.2h7.44H414.28z"/>
	<path class="st2" d="M456.06,101.83l-1.98,4.83h-7.37l10.55-23.88h7.97l10.51,23.88h-7.37l-1.94-4.83H456.06L456.06,101.83z
		 M464.77,97.67l-3.49-8.71l-3.53,8.71H464.77z"/>
	<path class="st2" d="M486.09,101.83l-1.98,4.83h-7.37l10.55-23.88h7.97l10.51,23.88h-7.37l-1.94-4.83H486.09L486.09,101.83z
		 M494.8,97.67l-3.49-8.71l-3.53,8.71H494.8z"/>
	<path class="st2" d="M516.15,82.78v18.17h10.94v5.72h-18.13V82.79h7.2L516.15,82.78z"/>
	<path class="st2" d="M537.32,101.83l-1.98,4.83h-7.37l10.55-23.88h7.97L557,106.66h-7.37l-1.94-4.83H537.32L537.32,101.83z
		 M546.03,97.67l-3.49-8.71l-3.53,8.71H546.03z"/>
</g>
<g>
	<path class="st2" d="M183.62,46.89c-1.86-1.07-5.11-2.93-10.46-2.93c-8.93,0-10.97,6.14-10.97,9.44c0,4.65,3.3,8.83,9.9,8.83
		c1.63,0,2.79-0.23,3.86-0.46v-3.72h-4.28v-6.32h12.55v15.11c-1.86,0.7-3.16,1.16-5.07,1.63c-2.37,0.56-5.44,1.02-8.83,1.02
		c-9.25,0-17.81-4.88-17.81-16.23c0-4.18,1.44-9.21,5.11-12.09c4.51-3.53,8.97-4,13.2-4c6.32,0,10.65,1.58,12.79,2.28L183.62,46.89
		L183.62,46.89z"/>
	<path class="st2" d="M204.73,69.49c-12.32,0-17.85-8.04-17.85-16.18s5.53-16.13,17.85-16.13s17.85,7.62,17.85,16.13
		S216.63,69.49,204.73,69.49z M204.73,61.4c5.25,0,8.18-3.39,8.18-8.09s-2.93-8.04-8.18-8.04s-8.18,3.3-8.18,8.04
		S199.57,61.4,204.73,61.4z"/>
	<path class="st2" d="M241.51,69.49c-12.32,0-17.85-8.04-17.85-16.18s5.53-16.13,17.85-16.13s17.85,7.62,17.85,16.13
		S253.41,69.49,241.51,69.49z M241.51,61.4c5.25,0,8.18-3.39,8.18-8.09s-2.93-8.04-8.18-8.04s-8.18,3.3-8.18,8.04
		S236.35,61.4,241.51,61.4z"/>
	<path class="st2" d="M275.54,37.59c7.9,0,11.48,2,13.81,3.91c2.98,2.42,5.49,6.65,5.49,12.41c0,7.39-3.81,10.88-5.9,12.51
		c-3.63,2.84-9.07,2.65-9.95,2.65h-16.5V37.59h13.06H275.54z M271.96,62.56H276c3.39,0,9.16-0.7,9.16-9.07s-5.77-9.58-9.16-9.58
		h-4.04v18.64V62.56z"/>
	<path class="st2" d="M329.57,47.22c-1.81-1.26-5.35-3.58-9.39-3.58c-2.6,0-3.35,1.26-3.35,2.37c0,1.3,0.98,2,3.63,3.25
		c6.28,2.98,10.46,5.16,10.46,10.65c0,6-4.97,9.58-11.9,9.58c-0.88,0-5.3,0-11.07-2.51v-7.72c1.77,1.12,5.44,3.44,9.62,3.44
		c3.77,0,3.86-2,3.86-2.32c0-1.86-2.23-2.88-4.79-3.95c-4.42-1.86-8.97-4.51-8.97-10.14c0-4.88,3.58-9.11,11.34-9.11
		c5.9,0,9.9,2.23,10.55,2.65v7.39L329.57,47.22z"/>
	<path class="st2" d="M344.08,56.79v12.27h-9.48V37.58h9.48v11.58h14.27V37.58h9.48v31.48h-9.48V56.79
		C358.35,56.79,344.08,56.79,344.08,56.79z"/>
	<path class="st2" d="M396.67,62.75v6.32h-23.71V37.59h23.34v6.32h-13.85v5.77h13.2V56h-13.2v6.74h14.23L396.67,62.75z"/>
	<path class="st2" d="M415.96,37.59c8.79,0,11.53,5.72,11.53,9.9s-2.74,9.76-11.53,9.76h-6.23v11.81h-9.48V37.58h15.71V37.59z
		 M409.73,43.63v7.58h2.05c4.46,0,6.04-0.65,6.04-3.67s-1.58-3.91-6.09-3.91H409.73L409.73,43.63z"/>
	<path class="st2" d="M438.89,56.79v12.27h-9.48V37.58h9.48v11.58h14.27V37.58h9.48v31.48h-9.48V56.79
		C453.16,56.79,438.89,56.79,438.89,56.79z"/>
	<path class="st2" d="M491.48,62.75v6.32h-23.71V37.59h23.34v6.32h-13.85v5.77h13.2V56h-13.2v6.74h14.23L491.48,62.75z"/>
	<path class="st2" d="M511.19,37.59c8.46,0,11.11,6.18,11.11,9.76c0,5.35-3.86,7.21-5.16,7.86c1.77,1.07,2.74,1.67,5.21,7.02
		l3.16,6.83h-10.18l-2.46-5.58c-2.79-6.32-4.42-6.7-7.25-6.7h-1.07v12.27h-9.48V37.57h16.13L511.19,37.59z M504.54,43.63v7.58h2.05
		c4.51,0,6.04-0.74,6.04-3.67s-1.86-3.91-6.09-3.91H504.54L504.54,43.63z"/>
	<path class="st2" d="M540.11,37.59c7.9,0,11.48,2,13.81,3.91c2.98,2.42,5.49,6.65,5.49,12.41c0,7.39-3.81,10.88-5.9,12.51
		c-3.63,2.84-9.07,2.65-9.95,2.65h-16.5V37.59h13.06H540.11z M536.53,62.56h4.04c3.39,0,9.16-0.7,9.16-9.07s-5.76-9.58-9.16-9.58
		h-4.04v18.64V62.56z"/>
</g>
</svg>
