<?xml version="1.0" encoding="utf-8"?>
<!-- Generator: Adobe Illustrator 27.0.0, SVG Export Plug-In . SVG Version: 6.00 Build 0)  -->
<svg version="1.1" id="Layer_1" xmlns="http://www.w3.org/2000/svg" xmlns:xlink="http://www.w3.org/1999/xlink" x="0px" y="0px"
	 viewBox="0 0 702.54 638.38" style="enable-background:new 0 0 702.54 638.38;" xml:space="preserve">
<style type="text/css">
	.st0{fill:#FFFFFF;}
</style>
<path d="M575.54,10.23c0-8.76-1.46-10.23-10.09-10.23c-70.34,0-140.69,0-211.03,0S213.73,0,143.39,0c-9.69,0-10.89,1.19-10.89,11.01
	c0,100.93-0.07,201.86,0.02,302.79c0.04,47.67,15.04,90.36,44.94,127.35c39.74,49.16,91.56,76.68,154.47,82.65
	c55.32,5.25,106.69-6.95,152.16-39.21c57.95-41.11,90.57-97.11,91.23-168.92C576.25,213.87,575.55,112.05,575.54,10.23L575.54,10.23
	z M566.03,313.44c-1.4,62.63-26.87,114.44-76.22,152.49c-70.26,54.16-148.03,62.94-228.48,26.62
	c-64.62-29.17-104.39-80.41-116.89-151.17c-1.83-10.38-2.47-21.09-2.51-31.64c-0.22-73.17-0.14-95.33-0.14-168.51
	c0-7.56,2.6-9.86,11-9.86c104.97,0,209.95,0,314.92,0.01c29.16,0,58.32,0,87.48,0c8.78,0,11.01,2.21,11.01,10.9
	c0.01,38,0,24.99,0,62.99h-0.04c0,36.06,0.66,72.13-0.15,108.16L566.03,313.44z"/>
<g>
	<path d="M376.47,412.59c-1.9-4.57-3.76-8.72-5.28-13c-0.35-1,0.54-2.42,0.8-3.66c0.55-2.59,2.13-5.57,1.35-7.68
		c-1.21-3.28-1.03-5.97-0.13-9.14c1.48-5.21-1-8.18-6.56-8.35c-3.01-0.09-6.02-0.02-9.75-0.02c0-11.63,0.02-22.62,0-33.61
		c-0.02-9.19,0.02-18.38-0.22-27.56c-0.09-3.43,1.08-5.31,4.33-6.52c18.92-7.04,38.23-9.29,58.18-5.53c4.52,0.85,6.59,2.87,7.45,7.6
		c4.82,26.64,10,53.21,15.08,79.8c1.09,5.72,0.85,6.14-4.93,5.91c-21.46-0.83-40.29,6.02-56.93,19.34c-0.92,0.74-1.93,1.37-3.4,2.4
		L376.47,412.59z"/>
	<path d="M351.26,370.77c-4,0-7.03-0.11-10.05,0.02c-5.29,0.23-7.57,3.16-6.24,8.21c0.78,2.98,1.22,5.56-0.17,8.7
		c-0.88,1.98-0.43,5.46,0.85,7.26c1.89,2.67,1.46,4.68,0.36,7.16c-1.47,3.33-2.84,6.7-4.43,10.48c-3.89-2.82-7.26-5.42-10.77-7.79
		c-15.1-10.18-31.76-14.82-49.98-13.97c-5.08,0.24-5.58-0.48-4.64-5.46c5.16-27.22,10.35-54.43,15.46-81.66
		c0.61-3.24,2.07-5.02,5.47-5.76c20.88-4.54,41.1-2.16,60.79,5.65c1.45,0.58,3.21,2.77,3.22,4.23c0.21,20.66,0.14,41.33,0.14,62.93
		H351.26z"/>
	<path d="M307.2,289.3c-0.1-14.35,5.34-26.09,15.84-34.94c24.59-20.72,59.07-13.55,73.49,15.19c2.46,4.91,3.02,10.8,4.29,16.27
		c0.59,2.53-0.3,3.96-3.31,4.01c-13.89,0.26-27.27,3.05-40.22,8.17c-1.91,0.75-4.63,0.76-6.54,0c-13.24-5.21-26.93-7.96-41.14-8.28
		C309.02,289.71,308.43,289.52,307.2,289.3L307.2,289.3z"/>
	<path d="M433.68,313.33c5.15,0.74,9.41,1,13.41,2.14c1.29,0.37,2.41,2.95,2.79,4.7c5.45,25.11,10.76,50.25,16.1,75.38
		c0.99,4.64,1.89,9.3,3.01,13.9c0.78,3.23-0.41,4.24-3.51,3.87c-6.99-0.84-13.96-1.8-20.98-2.33c-20.48-1.54-40.27,1.48-59.24,9.52
		c-0.98,0.41-1.99,0.76-3,1.05c-0.21,0.06-0.52-0.25-1.5-0.77c0.88-1.16,1.53-2.39,2.51-3.23c17.23-14.78,37.04-21.62,59.8-19.23
		c1.07,0.11,2.13,0.2,3.2,0.3c3.83,0.37,4.83-1.29,4.05-4.96c-4.69-21.98-9.26-43.99-13.85-66c-0.92-4.42-1.73-8.85-2.8-14.35
		L433.68,313.33z"/>
	<path d="M326.27,421.77c-2.94-1.08-5.9-2.11-8.81-3.26c-20.47-8.02-41.67-9.28-63.26-6.83c-3.34,0.38-6.67,0.94-10,1.39
		c-5.54,0.74-6.02,0.25-4.87-5.13c4.38-20.5,8.78-40.99,13.16-61.48c1.76-8.23,3.8-16.41,5.11-24.71c0.79-4.99,3.04-7.33,7.97-7.44
		c2.56-0.06,5.12-0.39,8.36-0.66c-0.25,2.23-0.31,3.98-0.66,5.67c-5.03,24.27-10.11,48.52-15.14,72.78
		c-1.32,6.38-0.73,7.1,5.67,6.34c21.48-2.52,40.61,3.14,57.61,16.33c2.14,1.66,4.06,3.61,6.08,5.42l-1.23,1.58H326.27z"/>
	<path d="M382.13,430.73c8.86-3.03,17.55-6.83,26.62-8.93c21.51-4.98,43.12-3.83,64.6,0.89c4.41,0.97,5.88-0.36,4.88-4.73
		c-4.24-18.47-8.56-36.92-12.86-55.38c-2.05-8.79-4.11-17.57-6.13-26.37c-0.3-1.3-0.35-2.66-0.63-4.94
		c4.55,0.43,8.68,0.4,12.54,1.39c1.52,0.39,3.16,2.91,3.55,4.71c3.34,15.23,6.42,30.51,9.54,45.78c2.94,14.38,5.76,28.78,8.76,43.14
		c1.45,6.94,0.83,7.7-5.94,6.39c-29.33-5.68-58.79-8.12-88.51-3.21c-5.33,0.88-10.63,1.94-15.94,2.91c-0.17-0.56-0.33-1.11-0.5-1.67
		L382.13,430.73z"/>
	<path d="M249.38,331.76c-0.31,2.04-0.47,3.82-0.86,5.54c-6.08,26.38-12.17,52.75-18.29,79.11c-1.43,6.16-0.25,7.2,5.78,5.99
		c30.08-6.06,59.6-5.76,87.79,8.35c0.51,0.25,0.98,0.59,1.27,1.6c-3.93-0.71-7.87-1.38-11.8-2.13c-25.42-4.85-50.85-4.23-76.29-0.15
		c-5.88,0.94-11.75,2-17.62,3.01c-4.59,0.8-5.67-0.15-4.74-4.8c2.55-12.74,5.28-25.45,7.9-38.18c3.45-16.77,6.95-33.53,10.26-50.33
		c1.3-6.59,1.77-7.36,8.41-7.98C243.73,331.56,246.3,331.75,249.38,331.76L249.38,331.76z"/>
	<path d="M350.64,474.21c-0.65-1.55-1.28-3.12-1.96-4.66c-5.77-13.09-11.64-26.15-17.23-39.32c-0.79-1.86-1-4.58-0.24-6.37
		c3.28-7.72,6.96-15.28,10.68-22.8c0.53-1.08,2-2.18,3.17-2.36c2.37-0.37,4.84-0.11,8.03-0.11c0,5.27,0.13,10.25-0.12,15.22
		c-0.04,0.88-1.53,1.95-2.58,2.47c-7.97,3.94-8.79,12.72-1.88,18.17c1.71,1.34,3.46,3.83,3.53,5.85c0.34,10.55,0.15,21.11,0.1,31.67
		c0,0.68-0.34,1.36-0.52,2.04c-0.32,0.07-0.65,0.13-0.97,0.2L350.64,474.21z"/>
	<path d="M356.35,473.92c-0.17-1.28-0.47-2.56-0.47-3.84c-0.06-9.48-0.06-18.96-0.08-28.43c0-3.25,1.04-5.67,4-7.63
		c5.35-3.54,6.19-10.67,1.54-15.06c-2.6-2.46-3.09-4.92-2.99-8.06c0.12-3.92,0.03-7.86,0.03-11.67c4.99-1.54,7.3-0.38,8.98,4.34
		c2.33,6.57,6.14,12.61,8.82,19.08c0.92,2.22,1.4,5.6,0.36,7.52c-6.95,12.75-13.06,25.82-17.3,39.74c-0.44,1.46-1.18,2.83-1.79,4.24
		C357.08,474.08,356.72,474,356.35,473.92L356.35,473.92z"/>
	<path d="M215.33,288.63c1.65-0.34,3.31-0.98,4.96-0.99c24.49-0.07,48.98-0.05,73.48-0.05c0.92,0,1.9-0.1,2.73,0.19
		c0.75,0.26,1.34,1,2,1.53c-0.66,0.69-1.22,1.74-2.02,2c-1.11,0.36-2.42,0.16-3.64,0.16c-23.88,0-47.76,0.03-71.64-0.01
		c-1.95,0-3.91-0.44-5.86-0.67c0-0.72,0-1.43,0-2.15L215.33,288.63z"/>
	<path d="M493.69,289c-4.73,3.43-80.95,3.21-84.75-0.1c2.19-0.54,3.8-1.27,5.41-1.27c24.62-0.07,49.24-0.06,73.85,0.01
		C489.7,287.64,491.2,288.36,493.69,289L493.69,289z"/>
	<path d="M402.64,263.63c-0.16-1.6-0.71-2.93-0.27-3.68c0.55-0.95,1.88-1.48,2.93-2.09c21.01-12.15,42.02-24.29,63.04-36.42
		c0.79-0.46,1.59-1.03,2.45-1.22c0.91-0.19,1.91,0.03,2.87,0.07c-0.28,0.93-0.42,1.94-0.9,2.75c-0.36,0.6-1.15,0.99-1.8,1.37
		c-21.56,12.42-43.12,24.82-64.69,37.22c-0.91,0.53-1.84,1.02-3.63,2.01L402.64,263.63z"/>
	<path d="M235.98,219.45c3.48,1.92,6.85,3.71,10.15,5.61c18.89,10.91,37.77,21.84,56.65,32.77c0.53,0.31,1.24,0.49,1.54,0.95
		c0.66,1,1.11,2.14,1.65,3.22c-1.16,0-2.55,0.39-3.45-0.1c-5.51-2.96-10.92-6.1-16.34-9.22c-16.25-9.37-32.49-18.75-48.72-28.16
		c-1.04-0.6-2.05-1.35-2.83-2.24c-0.37-0.42-0.34-1.42-0.12-2.03C234.65,219.86,235.47,219.71,235.98,219.45L235.98,219.45z"/>
	<path d="M286.14,169.34c0.97,1.26,2.1,2.44,2.89,3.81c10.01,17.3,19.97,34.64,29.95,51.96c2.36,4.1,4.83,8.15,7.03,12.34
		c0.58,1.1,0.31,2.65,0.42,3.99c-1.23-0.77-2.98-1.24-3.63-2.36c-9.88-16.86-19.63-33.8-29.39-50.72
		c-2.82-4.89-5.71-9.74-8.37-14.72c-0.57-1.07-0.32-2.59-0.44-3.91C285.11,169.6,285.63,169.47,286.14,169.34L286.14,169.34z"/>
	<path d="M383.14,242.28c-0.92-0.53-1.88-0.83-1.87-1.11c0.02-1.13,0.06-2.42,0.59-3.37c4.04-7.2,8.2-14.33,12.32-21.49
		c8.16-14.17,16.26-28.36,24.53-42.46c0.95-1.62,2.84-2.7,4.29-4.03c-0.37,2-0.24,4.29-1.19,5.96
		c-12.03,21.1-24.22,42.12-36.38,63.15C384.78,240.06,383.95,241.1,383.14,242.28L383.14,242.28z"/>
	<path d="M355.83,192.95c0,12.26,0.06,24.51-0.08,36.77c-0.02,1.46-1.18,2.91-1.81,4.37c-0.58-1.36-1.65-2.71-1.66-4.07
		c-0.1-24.82-0.06-49.64-0.06-74.46c0-0.31-0.1-0.66,0.02-0.91c0.51-1.1,1.08-2.18,1.63-3.27c0.65,1.14,1.85,2.27,1.86,3.42
		c0.13,12.72,0.08,25.43,0.08,38.15L355.83,192.95L355.83,192.95z"/>
	<path d="M340.32,376.16h27.7c-0.27,8.29-1.15,9.2-8.66,9.21c-3.66,0-7.31,0-10.97,0C341.42,385.37,340.24,384.04,340.32,376.16z"/>
	<path d="M298.43,276.62c-8.65-2.32-16.75-4.49-24.84-6.65c-4.41-1.18-8.87-2.23-13.23-3.59c-1.09-0.34-1.87-1.65-2.79-2.52
		c1.28-0.35,2.7-1.25,3.82-0.96c12.25,3.12,24.46,6.39,36.64,9.77c0.98,0.27,1.65,1.68,2.46,2.56
		C299.72,275.75,298.96,276.27,298.43,276.62L298.43,276.62z"/>
	<path d="M408.12,278.35c-0.2-1.07-0.77-2.23-0.51-3.17c0.26-0.94,1.2-2.1,2.09-2.38c3.92-1.24,7.94-2.2,11.92-3.25
		c8.4-2.21,16.8-4.48,25.23-6.55c1.04-0.26,2.33,0.5,3.51,0.79c-0.83,0.91-1.5,2.36-2.5,2.64c-12.35,3.41-24.75,6.66-37.13,9.94
		c-0.3,0.08-0.59,0.17-0.88,0.26c-0.58,0.58-1.15,1.15-1.73,1.73V278.35z"/>
	<path d="M315.63,249.01c-0.48,0.65-0.93,1.72-1.33,1.7c-0.94-0.04-2.1-0.34-2.76-0.97c-3.54-3.37-6.96-6.87-10.42-10.34
		c-5.72-5.74-11.49-11.43-17.09-17.28c-0.65-0.68-0.38-2.22-0.54-3.37c1.05,0.23,2.45,0.11,3.1,0.75
		c9.25,9.12,18.4,18.35,27.57,27.56c0.52,0.52,0.9,1.19,1.48,1.95H315.63z"/>
	<path d="M425.55,220.37c-0.85,1-1.49,1.86-2.24,2.61c-8.75,8.77-17.47,17.56-26.32,26.22c-0.87,0.85-2.49,0.92-3.77,1.36
		c0.38-1.27,0.37-2.91,1.19-3.75c8.75-8.99,17.61-17.88,26.51-26.72c0.75-0.75,2.04-1.1,3.14-1.28
		C424.44,218.75,425,219.77,425.55,220.37L425.55,220.37z"/>
	<path d="M328.27,191.49c1.37,2.21,2.24,3.11,2.54,4.17c3.4,12.35,6.75,24.72,9.99,37.12c0.23,0.88-0.6,2.03-0.94,3.05
		c-0.93-0.73-2.45-1.29-2.7-2.2c-3.48-12.5-6.82-25.03-10.05-37.59c-0.25-0.97,0.53-2.2,1.18-4.55H328.27z"/>
	<path d="M381.33,194.97c-1.22,4.5-2.35,8.61-3.45,12.74c-2.24,8.4-4.37,16.82-6.77,25.17c-0.34,1.19-1.93,2.01-2.94,3.01
		c-0.26-1.33-1.02-2.78-0.71-3.97c3.02-11.65,6.21-23.26,9.37-34.88c0.24-0.88,0.43-1.86,0.97-2.55c0.47-0.6,1.45-1.27,2.08-1.16
		C380.49,193.43,380.94,194.48,381.33,194.97L381.33,194.97z"/>
	<path d="M339.57,390.23h28.76c0.19,0.41,0.38,0.82,0.56,1.23c-1.57,0.66-3.11,1.83-4.7,1.9
		C342.99,394.28,340.94,393.98,339.57,390.23z"/>
</g>
<g>
	<path d="M553.85,523.66c0-13.14,0.04-12.99-12.64-9.53c-50.81,13.86-102.55,21.52-154.97,23.83
		c-76.32,3.36-151.49-5.22-225.35-25.46c-7.83-2.15-9.67-0.58-9.52,7.68c0.42,22.97,0.05,45.96,0,68.94
		c-0.03,15.23,3.7,20.83,17.79,24.53c56.83,14.92,114.41,24.24,173.21,24.74c19.23-1.06,38.53-1.4,57.68-3.31
		c48.55-4.85,96.47-14.48,144.78-21.13c7.02-0.97,9.32-3.87,9.2-11.32c-0.44-26.31-0.17-52.63-0.17-78.95L553.85,523.66z"/>
	<path d="M132.46,414.57c2.52-0.56,7.27,0.71,7.1-4.56c-0.17-5.47-4.52-4.81-7.92-5.13c-15.26-1.43-30.54-2.77-45.81-4.16
		c-25.82-2.35-51.64-4.71-79.18-7.23c7.11,11.98,13.38,22.56,19.66,33.13c5.46,9.2,5.28,17.93-1.22,26.71
		c-8.23,11.11-16.04,22.55-25.1,35.36c22.37,4.78,43.61,9.25,64.81,13.88c12.33,2.69,13.38,2.28,14.19-10.76
		c0.96-15.53,1.13-31.11,1.87-46.66c0.84-17.62,5.4-22.59,22.16-25.26c9.85-1.57,19.7-3.16,29.44-5.33L132.46,414.57z"/>
	<path d="M698.91,476.14c-5.56-6.19-9.94-13.49-15.35-19.84c-9.85-11.56-10.59-19.15-1.99-31.59c6.6-9.55,13.05-19.18,18.55-31.03
		c-15.9,1.47-30.62,2.86-45.35,4.19c-26.25,2.37-52.51,4.66-78.75,7.13c-3.22,0.3-7.62-0.53-7.47,5.4c0.15,5.85,4.4,4.6,7.69,5.13
		c8.78,1.42,17.54,3.03,26.35,4.25c19.49,2.71,24.18,8.15,24.27,28.85c0.06,15.19,0.1,30.38-0.05,45.57
		c-0.05,4.61,0.29,7.73,6.08,7.58c21.45-0.53,42.57-2.12,62.44-11.96C702.59,486.22,705.39,483.34,698.91,476.14L698.91,476.14z"/>
	<path d="M170.22,486.9c9.02-1.77,18.29-2.86,26.46-7.89c2.06-1.27,5.11-1.67,4.73-5.03c-0.35-3.01-2.7-3.85-5.38-4.42
		c-35.41-7.56-70.81-15.22-106.94-23.02c0,30.06-0.09,59.28,0.07,88.51c0.04,6.24,3.62,10.05,9.49,11.76
		c12.27,3.57,24.54,7.18,36.71,11.12c6.87,2.22,8.62-0.2,8.29-7.22c-0.51-10.72-0.51-21.5-0.06-32.23
		C144.52,496.42,149.5,490.96,170.22,486.9L170.22,486.9z"/>
	<path d="M510.99,470.02c-2.22,0.49-5.26,0.17-5.8,3.73c-0.65,4.24,2.8,4.61,5.2,5.82c11.08,5.58,23.37,6.13,35.08,9.09
		c14.87,3.76,19.6,10.26,19.21,25.93c-0.37,14.75-0.92,29.49,0.38,45.3c14.28-4.16,27.93-8.06,41.54-12.13
		c7.27-2.17,11.64-7.18,11.67-15.22c0.12-28.15,0.05-56.3,0.05-85.83c-36.4,7.89-71.87,15.55-107.32,23.31L510.99,470.02z"/>
	<path d="M612.91,428.91c-13.18-2.7-26.34-5.54-39.49-8.36c-2.53-0.54-5.42-1.29-5.56,2.61c-0.26,7.74-0.2,15.5,0,23.25
		c0.08,3.1,2.52,3.02,5.51,2.63c13.37-3.27,27.48-6.72,41.59-10.16c3.06-0.75,3.72-2.9,3.34-5.81c-0.44-3.35-2.83-3.64-5.38-4.16
		H612.91z"/>
	<path d="M132.4,420.21c-12.39,2.87-24.77,5.85-37.23,8.36c-3.71,0.75-5.85,1.83-5.75,6.12c0.11,4.7,3.36,4.83,6.54,5.5
		c9.68,2.06,19.31,4.39,29,6.4c14.2,2.95,14.27,7.14,14.12-11.47c0-2.95-0.26-5.93,0.06-8.84c0.63-5.66-1.74-7.23-6.74-6.08V420.21z
		"/>
	<path d="M193.31,489.05c-10.45,3.34-21.16,5.79-31.76,8.62c-2.31,0.62-5.57,0.28-5.79,3.65c-0.24,3.7,3.16,3.19,5.4,3.79
		c10.92,2.92,22.11,5.04,32.69,8.95c8.12,3,9.09-0.11,8.38-7.03c-0.19-1.82-0.03-3.69-0.03-5.53h0.04c0-1.84-0.2-3.72,0.03-5.53
		C203.31,487.92,200.12,486.86,193.31,489.05L193.31,489.05z"/>
	<path d="M549.95,501.24c-0.3-2.75-2.83-2.86-4.9-3.41c-13.04-3.46-26.07-6.98-39.69-10.63v29.4c13.81-3.94,27.09-7.74,40.38-11.49
		C547.83,504.52,550.28,504.18,549.95,501.24z"/>
</g>
<g>
	<path class="st0" d="M187.33,555.83l7.38,2.25l-9.32,30.53l-7.38-2.25L187.33,555.83L187.33,555.83z"/>
	<path class="st0" d="M197.41,559.06l6.94,1.74l6.94,19.13l4.11-16.36l7.37,1.85l-7.78,30.95l-6.52-1.64l-7.2-19.86L197,591.85
		l-7.37-1.85l7.78-30.95V559.06z"/>
	<path class="st0" d="M230.68,583.45l0.02-0.09c1.55-9.17,9.01-15.31,17.48-13.87c4.8,0.81,7.9,3.1,10.3,6.46l-5.49,5.41
		c-1.63-2.22-3.4-3.63-6.09-4.08c-3.94-0.67-7.63,2.64-8.44,7.45l-0.02,0.09c-0.86,5.08,1.6,9.24,5.93,9.98
		c1.83,0.31,3.31,0.1,4.59-0.56l0.65-3.82l-5.38-0.91l1.08-6.38l12.56,2.13l-2.4,14.16c-3.35,2.25-7.73,3.68-12.68,2.85
		c-8.5-1.44-13.72-9.26-12.1-18.79L230.68,583.45z"/>
	<path class="st0" d="M259.32,588.28v-0.09c1.05-9.11,8.26-15.77,16.75-14.8c8.49,0.96,13.95,8.97,12.91,18.08v0.09
		c-1.05,9.11-8.26,15.77-16.75,14.8S258.28,597.39,259.32,588.28z M281.17,590.77v-0.09c0.53-4.58-1.88-8.89-6.09-9.37
		c-4.17-0.47-7.4,3.1-7.92,7.68v0.09c-0.53,4.58,1.88,8.89,6.05,9.36c4.21,0.48,7.44-3.1,7.96-7.68L281.17,590.77z"/>
	<path class="st0" d="M292.56,575.8l10.66,0.66c9.87,0.61,15.18,7.52,14.61,16.72v0.09c-0.58,9.19-6.81,15.66-16.75,15.04
		l-10.5-0.65L292.56,575.8L292.56,575.8z M301.84,600.5c4.58,0.29,7.8-2.44,8.12-7.58v-0.09c0.32-5.1-2.53-8.25-7.11-8.53
		l-3.12-0.19l-1.01,16.2L301.84,600.5L301.84,600.5z"/>
	<path class="st0" d="M327.8,577.94l8.11-0.09l5.04,18.41l5.13-18.62l6.6-0.08l5.55,18.49l4.61-18.52l7.95-0.09l-8.89,32.25
		l-6.68,0.08l-5.79-18.31l-5.33,18.44l-6.68,0.08L327.8,577.94L327.8,577.94z"/>
	<path class="st0" d="M371.59,577.13l22.22-1.43l0.49,7.51l-14.65,0.95l0.31,4.82l13.26-0.86l0.45,6.96l-13.26,0.86l0.33,5.05
		l14.84-0.96l0.49,7.51l-22.42,1.45l-2.06-31.85L371.59,577.13z"/>
	<path class="st0" d="M412.67,581.55l-8.25,0.97l-0.9-7.7l24.12-2.83l0.9,7.7l-8.25,0.97l2.81,24l-7.62,0.89L412.67,581.55
		L412.67,581.55z"/>
	<path class="st0" d="M428.93,571.81l12.93-2.03c4.18-0.65,7.27,0.15,9.45,2.03c1.88,1.55,3.09,3.85,3.57,6.96v0.09
		c0.77,4.82-0.96,8.37-4.1,10.57l8.25,9.97l-8.75,1.37l-7-8.69h-0.08l-3.24,0.52l1.49,9.55l-7.58,1.19l-4.93-31.53H428.93z
		 M443.88,584.98c2.58-0.4,3.84-2.08,3.48-4.38v-0.09c-0.4-2.48-2.16-3.49-4.7-3.1l-4.96,0.78l1.18,7.57L443.88,584.98z"/>
	<path class="st0" d="M458.12,585.33l-3.49-17.58l7.64-1.52l3.45,17.4c0.9,4.52,3.3,6.27,6.33,5.67c3.03-0.6,4.6-3.05,3.73-7.43
		l-3.5-17.62l7.64-1.52l3.45,17.35c2.01,10.11-2.12,15.53-9.84,17.06c-7.72,1.53-13.47-2.02-15.41-11.82L458.12,585.33z"/>
	<path class="st0" d="M486.62,589.07l2.79-6.71c3.24,1.81,6.51,2.39,9.62,1.65c2-0.48,2.89-1.53,2.57-2.86l-0.02-0.09
		c-0.31-1.29-1.36-1.79-5.25-1.89c-6.09-0.14-10.96-0.95-12.48-7.34l-0.02-0.09c-1.37-5.77,1.6-10.88,8.06-12.42
		c4.58-1.09,8.5-0.52,12.06,1.49l-2.29,6.97c-2.94-1.41-5.89-1.83-8.27-1.27c-1.81,0.43-2.48,1.53-2.22,2.64l0.02,0.09
		c0.34,1.42,1.41,1.82,5.37,1.91c6.57,0.08,10.96,1.47,12.35,7.28l0.02,0.09c1.51,6.34-1.94,11.15-8.48,12.71
		c-4.77,1.13-9.72,0.49-13.85-2.14L486.62,589.07z"/>
	<path class="st0" d="M513.3,562.48l-8.01,2.19l-2.04-7.48l23.43-6.4l2.04,7.48l-8.01,2.19l6.37,23.32l-7.4,2.02l-6.37-23.31
		L513.3,562.48z"/>
</g>
<g>
	<path class="st0" d="M162.58,103.42l4.05-4.83c2.58,2.06,5.47,3.15,8.5,3.15c1.95,0,3-0.67,3-1.8v-0.07c0-1.09-0.86-1.69-4.42-2.51
		c-5.58-1.27-9.89-2.85-9.89-8.24v-0.08c0-4.87,3.86-8.39,10.15-8.39c4.46,0,7.94,1.2,10.79,3.48l-3.63,5.13
		c-2.4-1.69-5.02-2.58-7.34-2.58c-1.76,0-2.62,0.75-2.62,1.69v0.08c0,1.2,0.9,1.72,4.53,2.55c6.03,1.31,9.78,3.26,9.78,8.17v0.08
		c0,5.36-4.23,8.54-10.6,8.54c-4.65,0-9.07-1.46-12.29-4.35L162.58,103.42z"/>
	<path class="st0" d="M187.34,94.28V94.2c0-7.64,5.88-13.64,13.82-13.64c5.36,0,8.8,2.25,11.13,5.47l-5.47,4.23
		c-1.5-1.87-3.22-3.07-5.73-3.07c-3.67,0-6.26,3.11-6.26,6.93v0.07c0,3.93,2.58,7.01,6.26,7.01c2.73,0,4.35-1.27,5.92-3.18l5.47,3.9
		c-2.47,3.41-5.81,5.92-11.61,5.92c-7.49,0-13.52-5.73-13.52-13.56L187.34,94.28z"/>
	<path class="st0" d="M214.83,81.09h7.27v9.81h9.33v-9.81h7.27v26.22h-7.27v-9.96h-9.33v9.96h-7.27V81.09z"/>
	<path class="st0" d="M241.69,94.28V94.2c0-7.53,6.07-13.64,14.16-13.64s14.08,6.03,14.08,13.56v0.07c0,7.53-6.07,13.64-14.16,13.64
		s-14.09-6.03-14.09-13.56L241.69,94.28z M262.52,94.28V94.2c0-3.78-2.73-7.08-6.74-7.08s-6.63,3.22-6.63,7v0.07
		c0,3.78,2.73,7.08,6.71,7.08s6.67-3.22,6.67-7L262.52,94.28z"/>
	<path class="st0" d="M272.07,94.28V94.2c0-7.53,6.07-13.64,14.16-13.64s14.08,6.03,14.08,13.56v0.07c0,7.53-6.07,13.64-14.16,13.64
		s-14.09-6.03-14.09-13.56L272.07,94.28z M292.9,94.28V94.2c0-3.78-2.73-7.08-6.74-7.08s-6.63,3.22-6.63,7v0.07
		c0,3.78,2.73,7.08,6.71,7.08s6.67-3.22,6.67-7L292.9,94.28z"/>
	<path class="st0" d="M303.35,81.09h7.27v19.85h12.7v6.37h-19.97V81.09z"/>
	<path class="st0" d="M334.48,92.48h12.29v6.26h-12.29V92.48z"/>
	<path class="st0" d="M359.47,81.09h7.27v10.64l9.03-10.64h8.62l-9.93,11.28l10.26,14.95h-8.73l-6.59-9.74l-2.66,2.96v6.78h-7.27
		V81.09L359.47,81.09z"/>
	<path class="st0" d="M394.38,80.91h7.01l11.16,26.41h-7.79l-1.91-4.68h-10.11l-1.87,4.68h-7.64l11.16-26.41H394.38z M400.75,96.98
		l-2.92-7.45l-2.96,7.45H400.75z"/>
	<path class="st0" d="M409.21,81.09h7.68l4.57,15.17l5.06-15.25h6.26l5.06,15.25l4.57-15.17h7.53l-8.77,26.41h-6.33l-5.28-15.1
		l-5.24,15.1h-6.33l-8.77-26.41H409.21z"/>
	<path class="st0" d="M457.76,80.91h7.01l11.16,26.41h-7.79l-1.91-4.68h-10.11l-1.87,4.68h-7.64l11.16-26.41H457.76z M464.13,96.98
		l-2.92-7.45l-2.96,7.45H464.13z"/>
	<path class="st0" d="M486.04,80.91h7.01l11.16,26.41h-7.79l-1.91-4.68H484.4l-1.87,4.68h-7.64l11.16-26.41H486.04z M492.41,96.98
		l-2.92-7.45l-2.96,7.45H492.41z"/>
	<path class="st0" d="M506.01,81.09h7.27v19.85h12.7v6.37h-19.97L506.01,81.09L506.01,81.09z"/>
	<path class="st0" d="M537.4,80.91h7l11.16,26.41h-7.79l-1.91-4.68h-10.11l-1.87,4.68h-7.64L537.4,80.91z M543.77,96.98l-2.92-7.45
		l-2.96,7.45H543.77z"/>
</g>
<g>
	<path class="st0" d="M155.42,52.9v-0.09c0-9.42,7.39-16.81,17.41-16.81c5.68,0,9.7,1.75,13.11,4.71l-5.26,6.33
		c-2.31-1.94-4.62-3.05-7.8-3.05c-4.66,0-8.27,3.92-8.27,8.87v0.09c0,5.22,3.65,8.96,8.77,8.96c2.17,0,3.83-0.46,5.17-1.34v-3.92
		h-6.37v-6.56h14.87v14.54c-3.42,2.82-8.17,4.99-14.04,4.99C162.94,69.62,155.42,62.69,155.42,52.9L155.42,52.9z"/>
	<path class="st0" d="M190,52.9v-0.09c0-9.28,7.48-16.81,17.45-16.81s17.36,7.43,17.36,16.71v0.09c0,9.28-7.48,16.81-17.45,16.81
		S190,62.18,190,52.9z M215.67,52.9v-0.09c0-4.66-3.37-8.73-8.31-8.73s-8.17,3.97-8.17,8.63v0.09c0,4.66,3.37,8.73,8.27,8.73
		s8.22-3.97,8.22-8.63H215.67z"/>
	<path class="st0" d="M227.44,52.9v-0.09c0-9.28,7.48-16.81,17.45-16.81s17.36,7.43,17.36,16.71v0.09c0,9.28-7.48,16.81-17.45,16.81
		S227.44,62.18,227.44,52.9z M253.11,52.9v-0.09c0-4.66-3.37-8.73-8.31-8.73s-8.17,3.97-8.17,8.63v0.09c0,4.66,3.37,8.73,8.27,8.73
		s8.22-3.97,8.22-8.63H253.11z"/>
	<path class="st0" d="M266,36.65h12.47c11.54,0,18.24,6.65,18.24,15.98v0.09c0,9.33-6.79,16.25-18.42,16.25h-12.28L266,36.65
		L266,36.65z M278.6,61.03c5.36,0,8.91-2.96,8.91-8.17v-0.09c0-5.17-3.56-8.17-8.91-8.17h-3.65v16.44h3.65V61.03z"/>
	<path class="st0" d="M309.81,64.17l4.99-5.96c3.19,2.54,6.74,3.88,10.48,3.88c2.4,0,3.69-0.83,3.69-2.22v-0.09
		c0-1.34-1.06-2.08-5.45-3.09c-6.88-1.57-12.19-3.51-12.19-10.16v-0.09c0-6,4.76-10.34,12.51-10.34c5.49,0,9.79,1.48,13.3,4.29
		l-4.48,6.33c-2.96-2.08-6.19-3.19-9.05-3.19c-2.17,0-3.23,0.92-3.23,2.08v0.09c0,1.48,1.11,2.12,5.59,3.14
		c7.43,1.62,12.05,4.02,12.05,10.07V59c0,6.6-5.22,10.53-13.07,10.53c-5.73,0-11.17-1.8-15.15-5.36H309.81z"/>
	<path class="st0" d="M341.44,36.65h8.96v12.1h11.5v-12.1h8.96v32.32h-8.96V56.69h-11.5v12.28h-8.96V36.65z"/>
	<path class="st0" d="M375.65,36.65h26v7.62h-17.13v4.89h15.51v7.06h-15.51v5.12h17.36v7.62h-26.23V36.65z"/>
	<path class="st0" d="M405.52,36.65h13.85c8.17,0,13.44,4.2,13.44,11.36v0.09c0,7.62-5.86,11.64-13.9,11.64h-4.43v9.23h-8.96
		L405.52,36.65L405.52,36.65z M418.73,52.72c3.19,0,5.12-1.66,5.12-4.2v-0.09c0-2.77-1.94-4.25-5.17-4.25h-4.2v8.54H418.73
		L418.73,52.72z"/>
	<path class="st0" d="M435.67,36.65h8.96v12.1h11.5v-12.1h8.96v32.32h-8.96V56.69h-11.5v12.28h-8.96V36.65z"/>
	<path class="st0" d="M469.88,36.65h26v7.62h-17.13v4.89h15.51v7.06h-15.51v5.12h17.36v7.62h-26.23L469.88,36.65L469.88,36.65z"/>
	<path class="st0" d="M499.75,36.65h15.28c4.94,0,8.36,1.29,10.53,3.51c1.89,1.85,2.86,4.34,2.86,7.53v0.09
		c0,4.94-2.63,8.22-6.65,9.93l7.71,11.27h-10.34l-6.51-9.79h-3.92v9.79h-8.96V36.65z M514.62,52.16c3.05,0,4.8-1.48,4.8-3.83v-0.09
		c0-2.54-1.85-3.83-4.85-3.83h-5.86v7.76h5.91V52.16z"/>
	<path class="st0" d="M532.02,36.65h12.47c11.54,0,18.24,6.65,18.24,15.98v0.09c0,9.33-6.79,16.25-18.42,16.25h-12.28L532.02,36.65
		L532.02,36.65z M544.62,61.03c5.36,0,8.91-2.96,8.91-8.17v-0.09c0-5.17-3.56-8.17-8.91-8.17h-3.65v16.44h3.65V61.03z"/>
</g>
</svg>
