<?xml version="1.0" encoding="UTF-8"?>
<svg id="Layer_1" data-name="Layer 1" xmlns="http://www.w3.org/2000/svg" viewBox="0 0 1656.22 638.38">
  <defs>
    <style>
      .cls-1 {
        fill: #fff;
      }

      .cls-2 {
        fill: #ffcd05;
      }

      .cls-3 {
        fill: #ed1c24;
      }
    </style>
  </defs>
  <path d="M575.54,10.23C575.54,1.47,574.08,0,565.45,0c-70.34,0-140.69,0-211.03,0-70.34,0-140.69,0-211.03,0-9.69,0-10.89,1.19-10.89,11.01,0,100.93-.07,201.86,.02,302.79,.04,47.67,15.04,90.36,44.94,127.35,39.74,49.16,91.56,76.68,154.47,82.65,55.32,5.25,106.69-6.95,152.16-39.21,57.95-41.11,90.57-97.11,91.23-168.92,.93-101.8,.23-203.62,.22-305.44Zm-9.51,303.21c-1.4,62.63-26.87,114.44-76.22,152.49-70.26,54.16-148.03,62.94-228.48,26.62-64.62-29.17-104.39-80.41-116.89-151.17-1.83-10.38-2.47-21.09-2.51-31.64-.22-73.17-.14-95.33-.14-168.51,0-7.56,2.6-9.86,11-9.86,104.97,0,209.95,0,314.92,.01,29.16,0,58.32,0,87.48,0,8.78,0,11.01,2.21,11.01,10.9,.01,38,0,24.99,0,62.99h-.04c0,36.06,.66,72.13-.15,108.16Z"/>
  <g>
    <path d="M376.47,412.59c-1.9-4.57-3.76-8.72-5.28-13-.35-1,.54-2.42,.8-3.66,.55-2.59,2.13-5.57,1.35-7.68-1.21-3.28-1.03-5.97-.13-9.14,1.48-5.21-1-8.18-6.56-8.35-3.01-.09-6.02-.02-9.75-.02,0-11.63,.02-22.62,0-33.61-.02-9.19,.02-18.38-.22-27.56-.09-3.43,1.08-5.31,4.33-6.52,18.92-7.04,38.23-9.29,58.18-5.53,4.52,.85,6.59,2.87,7.45,7.6,4.82,26.64,10,53.21,15.08,79.8,1.09,5.72,.85,6.14-4.93,5.91-21.46-.83-40.29,6.02-56.93,19.34-.92,.74-1.93,1.37-3.4,2.4Z"/>
    <path d="M351.26,370.77c-4,0-7.03-.11-10.05,.02-5.29,.23-7.57,3.16-6.24,8.21,.78,2.98,1.22,5.56-.17,8.7-.88,1.98-.43,5.46,.85,7.26,1.89,2.67,1.46,4.68,.36,7.16-1.47,3.33-2.84,6.7-4.43,10.48-3.89-2.82-7.26-5.42-10.77-7.79-15.1-10.18-31.76-14.82-49.98-13.97-5.08,.24-5.58-.48-4.64-5.46,5.16-27.22,10.35-54.43,15.46-81.66,.61-3.24,2.07-5.02,5.47-5.76,20.88-4.54,41.1-2.16,60.79,5.65,1.45,.58,3.21,2.77,3.22,4.23,.21,20.66,.14,41.33,.14,62.93Z"/>
    <path d="M307.2,289.3c-.1-14.35,5.34-26.09,15.84-34.94,24.59-20.72,59.07-13.55,73.49,15.19,2.46,4.91,3.02,10.8,4.29,16.27,.59,2.53-.3,3.96-3.31,4.01-13.89,.26-27.27,3.05-40.22,8.17-1.91,.75-4.63,.76-6.54,0-13.24-5.21-26.93-7.96-41.14-8.28-.59-.01-1.18-.2-2.41-.43Z"/>
    <path d="M433.68,313.33c5.15,.74,9.41,1,13.41,2.14,1.29,.37,2.41,2.95,2.79,4.7,5.45,25.11,10.76,50.25,16.1,75.38,.99,4.64,1.89,9.3,3.01,13.9,.78,3.23-.41,4.24-3.51,3.87-6.99-.84-13.96-1.8-20.98-2.33-20.48-1.54-40.27,1.48-59.24,9.52-.98,.41-1.99,.76-3,1.05-.21,.06-.52-.25-1.5-.77,.88-1.16,1.53-2.39,2.51-3.23,17.23-14.78,37.04-21.62,59.8-19.23,1.07,.11,2.13,.2,3.2,.3,3.83,.37,4.83-1.29,4.05-4.96-4.69-21.98-9.26-43.99-13.85-66-.92-4.42-1.73-8.85-2.8-14.35Z"/>
    <path d="M326.27,421.77c-2.94-1.08-5.9-2.11-8.81-3.26-20.47-8.02-41.67-9.28-63.26-6.83-3.34,.38-6.67,.94-10,1.39-5.54,.74-6.02,.25-4.87-5.13,4.38-20.5,8.78-40.99,13.16-61.48,1.76-8.23,3.8-16.41,5.11-24.71,.79-4.99,3.04-7.33,7.97-7.44,2.56-.06,5.12-.39,8.36-.66-.25,2.23-.31,3.98-.66,5.67-5.03,24.27-10.11,48.52-15.14,72.78-1.32,6.38-.73,7.1,5.67,6.34,21.48-2.52,40.61,3.14,57.61,16.33,2.14,1.66,4.06,3.61,6.08,5.42l-1.23,1.58Z"/>
    <path d="M382.13,430.73c8.86-3.03,17.55-6.83,26.62-8.93,21.51-4.98,43.12-3.83,64.6,.89,4.41,.97,5.88-.36,4.88-4.73-4.24-18.47-8.56-36.92-12.86-55.38-2.05-8.79-4.11-17.57-6.13-26.37-.3-1.3-.35-2.66-.63-4.94,4.55,.43,8.68,.4,12.54,1.39,1.52,.39,3.16,2.91,3.55,4.71,3.34,15.23,6.42,30.51,9.54,45.78,2.94,14.38,5.76,28.78,8.76,43.14,1.45,6.94,.83,7.7-5.94,6.39-29.33-5.68-58.79-8.12-88.51-3.21-5.33,.88-10.63,1.94-15.94,2.91-.17-.56-.33-1.11-.5-1.67Z"/>
    <path d="M249.38,331.76c-.31,2.04-.47,3.82-.86,5.54-6.08,26.38-12.17,52.75-18.29,79.11-1.43,6.16-.25,7.2,5.78,5.99,30.08-6.06,59.6-5.76,87.79,8.35,.51,.25,.98,.59,1.27,1.6-3.93-.71-7.87-1.38-11.8-2.13-25.42-4.85-50.85-4.23-76.29-.15-5.88,.94-11.75,2-17.62,3.01-4.59,.8-5.67-.15-4.74-4.8,2.55-12.74,5.28-25.45,7.9-38.18,3.45-16.77,6.95-33.53,10.26-50.33,1.3-6.59,1.77-7.36,8.41-7.98,2.54-.23,5.11-.04,8.19-.04Z"/>
    <path d="M350.64,474.21c-.65-1.55-1.28-3.12-1.96-4.66-5.77-13.09-11.64-26.15-17.23-39.32-.79-1.86-1-4.58-.24-6.37,3.28-7.72,6.96-15.28,10.68-22.8,.53-1.08,2-2.18,3.17-2.36,2.37-.37,4.84-.11,8.03-.11,0,5.27,.13,10.25-.12,15.22-.04,.88-1.53,1.95-2.58,2.47-7.97,3.94-8.79,12.72-1.88,18.17,1.71,1.34,3.46,3.83,3.53,5.85,.34,10.55,.15,21.11,.1,31.67,0,.68-.34,1.36-.52,2.04-.32,.07-.65,.13-.97,.2Z"/>
    <path d="M356.35,473.92c-.17-1.28-.47-2.56-.47-3.84-.06-9.48-.06-18.96-.08-28.43,0-3.25,1.04-5.67,4-7.63,5.35-3.54,6.19-10.67,1.54-15.06-2.6-2.46-3.09-4.92-2.99-8.06,.12-3.92,.03-7.86,.03-11.67,4.99-1.54,7.3-.38,8.98,4.34,2.33,6.57,6.14,12.61,8.82,19.08,.92,2.22,1.4,5.6,.36,7.52-6.95,12.75-13.06,25.82-17.3,39.74-.44,1.46-1.18,2.83-1.79,4.24-.37-.07-.73-.15-1.1-.22Z"/>
    <path d="M215.33,288.63c1.65-.34,3.31-.98,4.96-.99,24.49-.07,48.98-.05,73.48-.05,.92,0,1.9-.1,2.73,.19,.75,.26,1.34,1,2,1.53-.66,.69-1.22,1.74-2.02,2-1.11,.36-2.42,.16-3.64,.16-23.88,0-47.76,.03-71.64-.01-1.95,0-3.91-.44-5.86-.67,0-.72,0-1.43,0-2.15Z"/>
    <path d="M493.69,289c-4.73,3.43-80.95,3.21-84.75-.1,2.19-.54,3.8-1.27,5.41-1.27,24.62-.07,49.24-.06,73.85,.01,1.5,0,3,.72,5.48,1.36Z"/>
    <path d="M402.64,263.63c-.16-1.6-.71-2.93-.27-3.68,.55-.95,1.88-1.48,2.93-2.09,21.01-12.15,42.02-24.29,63.04-36.42,.79-.46,1.59-1.03,2.45-1.22,.91-.19,1.91,.03,2.87,.07-.28,.93-.42,1.94-.9,2.75-.36,.6-1.15,.99-1.8,1.37-21.56,12.42-43.12,24.82-64.69,37.22-.91,.53-1.84,1.02-3.63,2.01Z"/>
    <path d="M235.98,219.45c3.48,1.92,6.85,3.71,10.15,5.61,18.89,10.91,37.77,21.84,56.65,32.77,.53,.31,1.24,.49,1.54,.95,.66,1,1.11,2.14,1.65,3.22-1.16,0-2.55,.39-3.45-.1-5.51-2.96-10.92-6.1-16.34-9.22-16.25-9.37-32.49-18.75-48.72-28.16-1.04-.6-2.05-1.35-2.83-2.24-.37-.42-.34-1.42-.12-2.03,.14-.39,.96-.54,1.48-.8Z"/>
    <path d="M286.14,169.34c.97,1.26,2.1,2.44,2.89,3.81,10.01,17.3,19.97,34.64,29.95,51.96,2.36,4.1,4.83,8.15,7.03,12.34,.58,1.1,.31,2.65,.42,3.99-1.23-.77-2.98-1.24-3.63-2.36-9.88-16.86-19.63-33.8-29.39-50.72-2.82-4.89-5.71-9.74-8.37-14.72-.57-1.07-.32-2.59-.44-3.91,.51-.13,1.03-.26,1.54-.39Z"/>
    <path d="M383.14,242.28c-.92-.53-1.88-.83-1.87-1.11,.02-1.13,.06-2.42,.59-3.37,4.04-7.2,8.2-14.33,12.32-21.49,8.16-14.17,16.26-28.36,24.53-42.46,.95-1.62,2.84-2.7,4.29-4.03-.37,2-.24,4.29-1.19,5.96-12.03,21.1-24.22,42.12-36.38,63.15-.65,1.13-1.48,2.17-2.29,3.35Z"/>
    <path d="M355.83,192.95c0,12.26,.06,24.51-.08,36.77-.02,1.46-1.18,2.91-1.81,4.37-.58-1.36-1.65-2.71-1.66-4.07-.1-24.82-.06-49.64-.06-74.46,0-.31-.1-.66,.02-.91,.51-1.1,1.08-2.18,1.63-3.27,.65,1.14,1.85,2.27,1.86,3.42,.13,12.72,.08,25.43,.08,38.15h.02Z"/>
    <path d="M340.32,376.16h27.7c-.27,8.29-1.15,9.2-8.66,9.21-3.66,0-7.31,0-10.97,0-6.97,0-8.15-1.33-8.07-9.21Z"/>
    <path d="M298.43,276.62c-8.65-2.32-16.75-4.49-24.84-6.65-4.41-1.18-8.87-2.23-13.23-3.59-1.09-.34-1.87-1.65-2.79-2.52,1.28-.35,2.7-1.25,3.82-.96,12.25,3.12,24.46,6.39,36.64,9.77,.98,.27,1.65,1.68,2.46,2.56-.77,.52-1.53,1.04-2.06,1.39Z"/>
    <path d="M408.12,278.35c-.2-1.07-.77-2.23-.51-3.17,.26-.94,1.2-2.1,2.09-2.38,3.92-1.24,7.94-2.2,11.92-3.25,8.4-2.21,16.8-4.48,25.23-6.55,1.04-.26,2.33,.5,3.51,.79-.83,.91-1.5,2.36-2.5,2.64-12.35,3.41-24.75,6.66-37.13,9.94-.3,.08-.59,.17-.88,.26-.58,.58-1.15,1.15-1.73,1.73Z"/>
    <path d="M315.63,249.01c-.48,.65-.93,1.72-1.33,1.7-.94-.04-2.1-.34-2.76-.97-3.54-3.37-6.96-6.87-10.42-10.34-5.72-5.74-11.49-11.43-17.09-17.28-.65-.68-.38-2.22-.54-3.37,1.05,.23,2.45,.11,3.1,.75,9.25,9.12,18.4,18.35,27.57,27.56,.52,.52,.9,1.19,1.48,1.95Z"/>
    <path d="M425.55,220.37c-.85,1-1.49,1.86-2.24,2.61-8.75,8.77-17.47,17.56-26.32,26.22-.87,.85-2.49,.92-3.77,1.36,.38-1.27,.37-2.91,1.19-3.75,8.75-8.99,17.61-17.88,26.51-26.72,.75-.75,2.04-1.1,3.14-1.28,.38-.06,.94,.96,1.49,1.56Z"/>
    <path d="M328.27,191.49c1.37,2.21,2.24,3.11,2.54,4.17,3.4,12.35,6.75,24.72,9.99,37.12,.23,.88-.6,2.03-.94,3.05-.93-.73-2.45-1.29-2.7-2.2-3.48-12.5-6.82-25.03-10.05-37.59-.25-.97,.53-2.2,1.18-4.55Z"/>
    <path d="M381.33,194.97c-1.22,4.5-2.35,8.61-3.45,12.74-2.24,8.4-4.37,16.82-6.77,25.17-.34,1.19-1.93,2.01-2.94,3.01-.26-1.33-1.02-2.78-.71-3.97,3.02-11.65,6.21-23.26,9.37-34.88,.24-.88,.43-1.86,.97-2.55,.47-.6,1.45-1.27,2.08-1.16,.61,.1,1.06,1.15,1.45,1.64Z"/>
    <path d="M339.57,390.23h28.76c.19,.41,.38,.82,.56,1.23-1.57,.66-3.11,1.83-4.7,1.9-21.2,.92-23.25,.62-24.62-3.13Z"/>
  </g>
  <g>
    <path d="M553.85,523.66c0-13.14,.04-12.99-12.64-9.53-50.81,13.86-102.55,21.52-154.97,23.83-76.32,3.36-151.49-5.22-225.35-25.46-7.83-2.15-9.67-.58-9.52,7.68,.42,22.97,.05,45.96,0,68.94-.03,15.23,3.7,20.83,17.79,24.53,56.83,14.92,114.41,24.24,173.21,24.74,19.23-1.06,38.53-1.4,57.68-3.31,48.55-4.85,96.47-14.48,144.78-21.13,7.02-.97,9.32-3.87,9.2-11.32-.44-26.31-.17-52.63-.17-78.95Z"/>
    <path d="M132.46,414.57c2.52-.56,7.27,.71,7.1-4.56-.17-5.47-4.52-4.81-7.92-5.13-15.26-1.43-30.54-2.77-45.81-4.16-25.82-2.35-51.64-4.71-79.18-7.23,7.11,11.98,13.38,22.56,19.66,33.13,5.46,9.2,5.28,17.93-1.22,26.71-8.23,11.11-16.04,22.55-25.1,35.36,22.37,4.78,43.61,9.25,64.81,13.88,12.33,2.69,13.38,2.28,14.19-10.76,.96-15.53,1.13-31.11,1.87-46.66,.84-17.62,5.4-22.59,22.16-25.26,9.85-1.57,19.7-3.16,29.44-5.33Z"/>
    <path d="M698.91,476.14c-5.56-6.19-9.94-13.49-15.35-19.84-9.85-11.56-10.59-19.15-1.99-31.59,6.6-9.55,13.05-19.18,18.55-31.03-15.9,1.47-30.62,2.86-45.35,4.19-26.25,2.37-52.51,4.66-78.75,7.13-3.22,.3-7.62-.53-7.47,5.4,.15,5.85,4.4,4.6,7.69,5.13,8.78,1.42,17.54,3.03,26.35,4.25,19.49,2.71,24.18,8.15,24.27,28.85,.06,15.19,.1,30.38-.05,45.57-.05,4.61,.29,7.73,6.08,7.58,21.45-.53,42.57-2.12,62.44-11.96,7.26-3.6,10.06-6.48,3.58-13.69Z"/>
    <path d="M170.22,486.9c9.02-1.77,18.29-2.86,26.46-7.89,2.06-1.27,5.11-1.67,4.73-5.03-.35-3.01-2.7-3.85-5.38-4.42-35.41-7.56-70.81-15.22-106.94-23.02,0,30.06-.09,59.28,.07,88.51,.04,6.24,3.62,10.05,9.49,11.76,12.27,3.57,24.54,7.18,36.71,11.12,6.87,2.22,8.62-.2,8.29-7.22-.51-10.72-.51-21.5-.06-32.23,.93-22.06,5.91-27.52,26.64-31.58Z"/>
    <path d="M510.99,470.02c-2.22,.49-5.26,.17-5.8,3.73-.65,4.24,2.8,4.61,5.2,5.82,11.08,5.58,23.37,6.13,35.08,9.09,14.87,3.76,19.6,10.26,19.21,25.93-.37,14.75-.92,29.49,.38,45.3,14.28-4.16,27.93-8.06,41.54-12.13,7.27-2.17,11.64-7.18,11.67-15.22,.12-28.15,.05-56.3,.05-85.83-36.4,7.89-71.87,15.55-107.32,23.31Z"/>
    <path d="M612.91,428.91c-13.18-2.7-26.34-5.54-39.49-8.36-2.53-.54-5.42-1.29-5.56,2.61-.26,7.74-.2,15.5,0,23.25,.08,3.1,2.52,3.02,5.51,2.63,13.37-3.27,27.48-6.72,41.59-10.16,3.06-.75,3.72-2.9,3.34-5.81-.44-3.35-2.83-3.64-5.38-4.16Z"/>
    <path d="M132.4,420.21c-12.39,2.87-24.77,5.85-37.23,8.36-3.71,.75-5.85,1.83-5.75,6.12,.11,4.7,3.36,4.83,6.54,5.5,9.68,2.06,19.31,4.39,29,6.4,14.2,2.95,14.27,7.14,14.12-11.47,0-2.95-.26-5.93,.06-8.84,.63-5.66-1.74-7.23-6.74-6.08Z"/>
    <path d="M193.31,489.05c-10.45,3.34-21.16,5.79-31.76,8.62-2.31,.62-5.57,.28-5.79,3.65-.24,3.7,3.16,3.19,5.4,3.79,10.92,2.92,22.11,5.04,32.69,8.95,8.12,3,9.09-.11,8.38-7.03-.19-1.82-.03-3.69-.03-5.53h.04c0-1.84-.2-3.72,.03-5.53,1.04-8.05-2.15-9.11-8.97-6.93Z"/>
    <path d="M549.95,501.24c-.3-2.75-2.83-2.86-4.9-3.41-13.04-3.46-26.07-6.98-39.69-10.63v29.4c13.81-3.94,27.09-7.74,40.38-11.49,2.09-.59,4.54-.93,4.21-3.87Z"/>
  </g>
  <g>
    <path class="cls-1" d="M187.33,555.83l7.38,2.25-9.32,30.53-7.38-2.25,9.32-30.53Z"/>
    <path class="cls-1" d="M197.41,559.06l6.94,1.74,6.94,19.13,4.11-16.36,7.37,1.85-7.78,30.95-6.52-1.64-7.2-19.86-4.27,16.98-7.37-1.85,7.78-30.95Z"/>
    <path class="cls-1" d="M230.68,583.45l.02-.09c1.55-9.17,9.01-15.31,17.48-13.87,4.8,.81,7.9,3.1,10.3,6.46l-5.49,5.41c-1.63-2.22-3.4-3.63-6.09-4.08-3.94-.67-7.63,2.64-8.44,7.45l-.02,.09c-.86,5.08,1.6,9.24,5.93,9.98,1.83,.31,3.31,.1,4.59-.56l.65-3.82-5.38-.91,1.08-6.38,12.56,2.13-2.4,14.16c-3.35,2.25-7.73,3.68-12.68,2.85-8.5-1.44-13.72-9.26-12.1-18.79Z"/>
    <path class="cls-1" d="M259.32,588.28v-.09c1.05-9.11,8.26-15.77,16.75-14.8,8.49,.96,13.95,8.97,12.91,18.08v.09c-1.05,9.11-8.26,15.77-16.75,14.8s-13.95-8.97-12.91-18.08Zm21.85,2.49v-.09c.53-4.58-1.88-8.89-6.09-9.37-4.17-.47-7.4,3.1-7.92,7.68v.09c-.53,4.58,1.88,8.89,6.05,9.36,4.21,.48,7.44-3.1,7.96-7.68Z"/>
    <path class="cls-1" d="M292.56,575.8l10.66,.66c9.87,.61,15.18,7.52,14.61,16.72v.09c-.58,9.19-6.81,15.66-16.75,15.04l-10.5-.65,1.99-31.86Zm9.28,24.7c4.58,.29,7.8-2.44,8.12-7.58v-.09c.32-5.1-2.53-8.25-7.11-8.53l-3.12-.19-1.01,16.2,3.12,.19Z"/>
    <path class="cls-1" d="M327.8,577.94l8.11-.09,5.04,18.41,5.13-18.62,6.6-.08,5.55,18.49,4.61-18.52,7.95-.09-8.89,32.25-6.68,.08-5.79-18.31-5.33,18.44-6.68,.08-9.62-32.04Z"/>
    <path class="cls-1" d="M371.59,577.13l22.22-1.43,.49,7.51-14.65,.95,.31,4.82,13.26-.86,.45,6.96-13.26,.86,.33,5.05,14.84-.96,.49,7.51-22.42,1.45-2.06-31.85Z"/>
    <path class="cls-1" d="M412.67,581.55l-8.25,.97-.9-7.7,24.12-2.83,.9,7.7-8.25,.97,2.81,24-7.62,.89-2.81-24Z"/>
    <path class="cls-1" d="M428.93,571.81l12.93-2.03c4.18-.65,7.27,.15,9.45,2.03,1.88,1.55,3.09,3.85,3.57,6.96v.09c.77,4.82-.96,8.37-4.1,10.57l8.25,9.97-8.75,1.37-7-8.69h-.08s-3.24,.52-3.24,.52l1.49,9.55-7.58,1.19-4.93-31.53Zm14.95,13.17c2.58-.4,3.84-2.08,3.48-4.38v-.09c-.4-2.48-2.16-3.49-4.7-3.1l-4.96,.78,1.18,7.57,5-.78Z"/>
    <path class="cls-1" d="M458.12,585.33l-3.49-17.58,7.64-1.52,3.45,17.4c.9,4.52,3.3,6.27,6.33,5.67,3.03-.6,4.6-3.05,3.73-7.43l-3.5-17.62,7.64-1.52,3.45,17.35c2.01,10.11-2.12,15.53-9.84,17.06-7.72,1.53-13.47-2.02-15.41-11.82Z"/>
    <path class="cls-1" d="M486.62,589.07l2.79-6.71c3.24,1.81,6.51,2.39,9.62,1.65,2-.48,2.89-1.53,2.57-2.86l-.02-.09c-.31-1.29-1.36-1.79-5.25-1.89-6.09-.14-10.96-.95-12.48-7.34l-.02-.09c-1.37-5.77,1.6-10.88,8.06-12.42,4.58-1.09,8.5-.52,12.06,1.49l-2.29,6.97c-2.94-1.41-5.89-1.83-8.27-1.27-1.81,.43-2.48,1.53-2.22,2.64l.02,.09c.34,1.42,1.41,1.82,5.37,1.91,6.57,.08,10.96,1.47,12.35,7.28l.02,.09c1.51,6.34-1.94,11.15-8.48,12.71-4.77,1.13-9.72,.49-13.85-2.14Z"/>
    <path class="cls-1" d="M513.3,562.48l-8.01,2.19-2.04-7.48,23.43-6.4,2.04,7.48-8.01,2.19,6.37,23.32-7.4,2.02-6.37-23.31Z"/>
  </g>
  <g>
    <path class="cls-1" d="M162.58,103.42l4.05-4.83c2.58,2.06,5.47,3.15,8.5,3.15,1.95,0,3-.67,3-1.8v-.07c0-1.09-.86-1.69-4.42-2.51-5.58-1.27-9.89-2.85-9.89-8.24v-.08c0-4.87,3.86-8.39,10.15-8.39,4.46,0,7.94,1.2,10.79,3.48l-3.63,5.13c-2.4-1.69-5.02-2.58-7.34-2.58-1.76,0-2.62,.75-2.62,1.69v.08c0,1.2,.9,1.72,4.53,2.55,6.03,1.31,9.78,3.26,9.78,8.17v.08c0,5.36-4.23,8.54-10.6,8.54-4.65,0-9.07-1.46-12.29-4.35Z"/>
    <path class="cls-1" d="M187.34,94.28v-.08c0-7.64,5.88-13.64,13.82-13.64,5.36,0,8.8,2.25,11.13,5.47l-5.47,4.23c-1.5-1.87-3.22-3.07-5.73-3.07-3.67,0-6.26,3.11-6.26,6.93v.07c0,3.93,2.58,7.01,6.26,7.01,2.73,0,4.35-1.27,5.92-3.18l5.47,3.9c-2.47,3.41-5.81,5.92-11.61,5.92-7.49,0-13.52-5.73-13.52-13.56Z"/>
    <path class="cls-1" d="M214.83,81.09h7.27v9.81h9.33v-9.81h7.27v26.22h-7.27v-9.96h-9.33v9.96h-7.27v-26.22Z"/>
    <path class="cls-1" d="M241.69,94.28v-.08c0-7.53,6.07-13.64,14.16-13.64s14.08,6.03,14.08,13.56v.07c0,7.53-6.07,13.64-14.16,13.64s-14.09-6.03-14.09-13.56Zm20.83,0v-.08c0-3.78-2.73-7.08-6.74-7.08s-6.63,3.22-6.63,7v.07c0,3.78,2.73,7.08,6.71,7.08s6.67-3.22,6.67-7Z"/>
    <path class="cls-1" d="M272.07,94.28v-.08c0-7.53,6.07-13.64,14.16-13.64s14.08,6.03,14.08,13.56v.07c0,7.53-6.07,13.64-14.16,13.64s-14.09-6.03-14.09-13.56Zm20.83,0v-.08c0-3.78-2.73-7.08-6.74-7.08s-6.63,3.22-6.63,7v.07c0,3.78,2.73,7.08,6.71,7.08s6.67-3.22,6.67-7Z"/>
    <path class="cls-1" d="M303.35,81.09h7.27v19.85h12.7v6.37h-19.97v-26.22Z"/>
    <path class="cls-1" d="M334.48,92.48h12.29v6.26h-12.29v-6.26Z"/>
    <path class="cls-1" d="M359.47,81.09h7.27v10.64l9.03-10.64h8.62l-9.93,11.28,10.26,14.95h-8.73l-6.59-9.74-2.66,2.96v6.78h-7.27v-26.22Z"/>
    <path class="cls-1" d="M394.38,80.91h7.01l11.16,26.41h-7.79l-1.91-4.68h-10.11l-1.87,4.68h-7.64l11.16-26.41Zm6.37,16.07l-2.92-7.45-2.96,7.45h5.88Z"/>
    <path class="cls-1" d="M409.21,81.09h7.68l4.57,15.17,5.06-15.25h6.26l5.06,15.25,4.57-15.17h7.53l-8.77,26.41h-6.33l-5.28-15.1-5.24,15.1h-6.33l-8.77-26.41Z"/>
    <path class="cls-1" d="M457.76,80.91h7.01l11.16,26.41h-7.79l-1.91-4.68h-10.11l-1.87,4.68h-7.64l11.16-26.41Zm6.37,16.07l-2.92-7.45-2.96,7.45h5.88Z"/>
    <path class="cls-1" d="M486.04,80.91h7.01l11.16,26.41h-7.79l-1.91-4.68h-10.11l-1.87,4.68h-7.64l11.16-26.41Zm6.37,16.07l-2.92-7.45-2.96,7.45h5.88Z"/>
    <path class="cls-1" d="M506.01,81.09h7.27v19.85h12.7v6.37h-19.97v-26.22Z"/>
    <path class="cls-1" d="M537.4,80.91h7l11.16,26.41h-7.79l-1.91-4.68h-10.11l-1.87,4.68h-7.64l11.16-26.41Zm6.37,16.07l-2.92-7.45-2.96,7.45h5.88Z"/>
  </g>
  <g>
    <path class="cls-1" d="M155.42,52.9v-.09c0-9.42,7.39-16.81,17.41-16.81,5.68,0,9.7,1.75,13.11,4.71l-5.26,6.33c-2.31-1.94-4.62-3.05-7.8-3.05-4.66,0-8.27,3.92-8.27,8.87v.09c0,5.22,3.65,8.96,8.77,8.96,2.17,0,3.83-.46,5.17-1.34v-3.92h-6.37v-6.56h14.87v14.54c-3.42,2.82-8.17,4.99-14.04,4.99-10.07,0-17.59-6.93-17.59-16.71Z"/>
    <path class="cls-1" d="M190,52.9v-.09c0-9.28,7.48-16.81,17.45-16.81s17.36,7.43,17.36,16.71v.09c0,9.28-7.48,16.81-17.45,16.81s-17.36-7.43-17.36-16.71Zm25.67,0v-.09c0-4.66-3.37-8.73-8.31-8.73s-8.17,3.97-8.17,8.63v.09c0,4.66,3.37,8.73,8.27,8.73s8.22-3.97,8.22-8.63Z"/>
    <path class="cls-1" d="M227.44,52.9v-.09c0-9.28,7.48-16.81,17.45-16.81s17.36,7.43,17.36,16.71v.09c0,9.28-7.48,16.81-17.45,16.81s-17.36-7.43-17.36-16.71Zm25.67,0v-.09c0-4.66-3.37-8.73-8.31-8.73s-8.17,3.97-8.17,8.63v.09c0,4.66,3.37,8.73,8.27,8.73s8.22-3.97,8.22-8.63Z"/>
    <path class="cls-1" d="M266,36.65h12.47c11.54,0,18.24,6.65,18.24,15.98v.09c0,9.33-6.79,16.25-18.42,16.25h-12.28V36.65Zm12.6,24.38c5.36,0,8.91-2.96,8.91-8.17v-.09c0-5.17-3.56-8.17-8.91-8.17h-3.65v16.44h3.65Z"/>
    <path class="cls-1" d="M309.81,64.17l4.99-5.96c3.19,2.54,6.74,3.88,10.48,3.88,2.4,0,3.69-.83,3.69-2.22v-.09c0-1.34-1.06-2.08-5.45-3.09-6.88-1.57-12.19-3.51-12.19-10.16v-.09c0-6,4.76-10.34,12.51-10.34,5.49,0,9.79,1.48,13.3,4.29l-4.48,6.33c-2.96-2.08-6.19-3.19-9.05-3.19-2.17,0-3.23,.92-3.23,2.08v.09c0,1.48,1.11,2.12,5.59,3.14,7.43,1.62,12.05,4.02,12.05,10.07v.09c0,6.6-5.22,10.53-13.07,10.53-5.73,0-11.17-1.8-15.15-5.36Z"/>
    <path class="cls-1" d="M341.44,36.65h8.96v12.1h11.5v-12.1h8.96v32.32h-8.96v-12.28h-11.5v12.28h-8.96V36.65Z"/>
    <path class="cls-1" d="M375.65,36.65h26v7.62h-17.13v4.89h15.51v7.06h-15.51v5.12h17.36v7.62h-26.23V36.65Z"/>
    <path class="cls-1" d="M405.52,36.65h13.85c8.17,0,13.44,4.2,13.44,11.36v.09c0,7.62-5.86,11.64-13.9,11.64h-4.43v9.23h-8.96V36.65Zm13.21,16.07c3.19,0,5.12-1.66,5.12-4.2v-.09c0-2.77-1.94-4.25-5.17-4.25h-4.2v8.54h4.25Z"/>
    <path class="cls-1" d="M435.67,36.65h8.96v12.1h11.5v-12.1h8.96v32.32h-8.96v-12.28h-11.5v12.28h-8.96V36.65Z"/>
    <path class="cls-1" d="M469.88,36.65h26v7.62h-17.13v4.89h15.51v7.06h-15.51v5.12h17.36v7.62h-26.23V36.65Z"/>
    <path class="cls-1" d="M499.75,36.65h15.28c4.94,0,8.36,1.29,10.53,3.51,1.89,1.85,2.86,4.34,2.86,7.53v.09c0,4.94-2.63,8.22-6.65,9.93l7.71,11.27h-10.34l-6.51-9.79h-3.92v9.79h-8.96V36.65Zm14.87,15.51c3.05,0,4.8-1.48,4.8-3.83v-.09c0-2.54-1.85-3.83-4.85-3.83h-5.86v7.76h5.91Z"/>
    <path class="cls-1" d="M532.02,36.65h12.47c11.54,0,18.24,6.65,18.24,15.98v.09c0,9.33-6.79,16.25-18.42,16.25h-12.28V36.65Zm12.6,24.38c5.36,0,8.91-2.96,8.91-8.17v-.09c0-5.17-3.56-8.17-8.91-8.17h-3.65v16.44h3.65Z"/>
  </g>
  <path d="M1519.57,10.23c0-8.77-1.46-10.23-10.08-10.23-70.34,0-140.69,0-211.03,0-70.34,0-140.69,0-211.03,0-9.69,0-10.89,1.19-10.89,11.01,0,100.93-.07,201.86,.02,302.79,.04,47.67,15.04,90.36,44.94,127.35,39.74,49.16,91.56,76.68,154.47,82.65,55.32,5.25,106.69-6.95,152.16-39.21,57.95-41.11,90.57-97.11,91.23-168.92,.93-101.8,.23-203.62,.22-305.44Zm-9.51,303.21c-1.4,62.63-26.87,114.44-76.22,152.49-70.26,54.16-148.03,62.94-228.48,26.62-64.62-29.17-104.39-80.41-116.89-151.17-1.83-10.38-2.47-21.09-2.51-31.64-.22-73.17-.14-95.33-.14-168.51,0-7.56,2.6-9.86,11-9.86,104.97,0,209.95,0,314.92,.01,29.16,0,58.32,0,87.48,0,8.78,0,11.01,2.21,11.01,10.9,.01,38,0,24.99,0,62.99h-.04c0,36.06,.66,72.13-.15,108.16Z"/>
  <path class="cls-3" d="M1320.51,412.59c-1.9-4.57-3.76-8.72-5.28-13-.35-1,.54-2.42,.8-3.66,.55-2.59,2.13-5.57,1.35-7.68-1.21-3.28-1.03-5.97-.13-9.14,1.48-5.21-1-8.18-6.56-8.35-3.01-.09-6.02-.02-9.75-.02,0-11.63,.02-22.62,0-33.61-.02-9.19,.02-18.38-.22-27.56-.09-3.43,1.08-5.31,4.33-6.52,18.92-7.04,38.23-9.29,58.18-5.53,4.52,.85,6.59,2.87,7.45,7.6,4.82,26.64,10,53.21,15.08,79.8,1.09,5.72,.85,6.14-4.93,5.91-21.46-.83-40.29,6.02-56.93,19.34-.92,.74-1.93,1.37-3.4,2.4Z"/>
  <path class="cls-3" d="M1295.3,370.77c-4,0-7.03-.11-10.05,.02-5.29,.23-7.57,3.16-6.24,8.21,.78,2.98,1.22,5.56-.17,8.7-.88,1.98-.43,5.46,.85,7.26,1.89,2.67,1.46,4.68,.36,7.16-1.47,3.33-2.84,6.7-4.43,10.48-3.89-2.82-7.26-5.42-10.77-7.79-15.1-10.18-31.76-14.82-49.98-13.97-5.08,.24-5.58-.48-4.64-5.46,5.16-27.22,10.35-54.43,15.46-81.66,.61-3.24,2.07-5.02,5.47-5.76,20.88-4.54,41.1-2.16,60.79,5.65,1.45,.58,3.21,2.77,3.22,4.23,.21,20.66,.14,41.33,.14,62.93Z"/>
  <path class="cls-3" d="M1377.71,313.33c5.15,.74,9.41,1,13.41,2.14,1.29,.37,2.41,2.95,2.79,4.7,5.45,25.11,10.76,50.25,16.1,75.38,.99,4.64,1.89,9.3,3.01,13.9,.78,3.23-.41,4.24-3.51,3.87-6.99-.84-13.96-1.8-20.98-2.33-20.48-1.54-40.27,1.48-59.24,9.52-.98,.41-1.99,.76-3,1.05-.21,.06-.52-.25-1.5-.77,.88-1.16,1.53-2.39,2.51-3.23,17.23-14.78,37.04-21.62,59.8-19.23,1.07,.11,2.13,.2,3.2,.3,3.83,.37,4.83-1.29,4.05-4.96-4.69-21.98-9.26-43.99-13.85-66-.92-4.42-1.73-8.85-2.8-14.35Z"/>
  <path class="cls-3" d="M1270.31,421.77c-2.94-1.08-5.9-2.11-8.81-3.26-20.47-8.02-41.67-9.28-63.26-6.83-3.34,.38-6.67,.94-10,1.39-5.54,.74-6.02,.25-4.87-5.13,4.38-20.5,8.78-40.99,13.16-61.48,1.76-8.23,3.8-16.41,5.11-24.71,.79-4.99,3.04-7.33,7.97-7.44,2.56-.06,5.12-.39,8.36-.66-.25,2.23-.31,3.98-.66,5.67-5.03,24.27-10.11,48.52-15.14,72.78-1.32,6.38-.73,7.1,5.67,6.34,21.48-2.52,40.61,3.14,57.61,16.33,2.14,1.66,4.06,3.61,6.08,5.42l-1.23,1.58Z"/>
  <path class="cls-3" d="M1326.17,430.73c8.86-3.03,17.55-6.83,26.62-8.93,21.51-4.98,43.12-3.83,64.6,.89,4.41,.97,5.88-.36,4.88-4.73-4.24-18.47-8.56-36.92-12.86-55.38-2.05-8.79-4.11-17.57-6.13-26.37-.3-1.3-.35-2.66-.63-4.94,4.55,.43,8.68,.4,12.54,1.39,1.52,.39,3.16,2.91,3.55,4.71,3.34,15.23,6.42,30.51,9.54,45.78,2.94,14.38,5.76,28.78,8.76,43.14,1.45,6.94,.83,7.7-5.94,6.39-29.33-5.68-58.79-8.12-88.51-3.21-5.33,.88-10.63,1.94-15.94,2.91-.17-.56-.33-1.11-.5-1.67Z"/>
  <path class="cls-3" d="M1193.42,331.76c-.31,2.04-.47,3.82-.86,5.54-6.08,26.38-12.17,52.75-18.29,79.11-1.43,6.16-.25,7.2,5.78,5.99,30.08-6.06,59.6-5.76,87.79,8.35,.51,.25,.98,.59,1.27,1.6-3.93-.71-7.87-1.38-11.8-2.13-25.42-4.85-50.85-4.23-76.29-.15-5.88,.94-11.75,2-17.62,3.01-4.59,.8-5.67-.15-4.74-4.8,2.55-12.74,5.28-25.45,7.9-38.18,3.45-16.77,6.95-33.53,10.26-50.33,1.3-6.59,1.77-7.36,8.41-7.98,2.54-.23,5.11-.04,8.19-.04Z"/>
  <g>
    <path class="cls-2" d="M1251.24,289.3c-.1-14.35,5.34-26.09,15.84-34.94,24.59-20.72,59.07-13.55,73.49,15.19,2.46,4.91,3.02,10.8,4.29,16.27,.59,2.53-.3,3.96-3.31,4.01-13.89,.26-27.27,3.05-40.22,8.17-1.91,.75-4.63,.76-6.54,0-13.24-5.21-26.93-7.96-41.14-8.28-.59-.01-1.18-.2-2.41-.43Z"/>
    <path class="cls-2" d="M1159.37,288.63c1.65-.34,3.31-.98,4.96-.99,24.49-.07,48.98-.05,73.48-.05,.92,0,1.9-.1,2.73,.19,.75,.26,1.34,1,2,1.53-.66,.69-1.22,1.74-2.02,2-1.11,.36-2.42,.16-3.64,.16-23.88,0-47.76,.03-71.64-.01-1.95,0-3.91-.44-5.86-.67,0-.72,0-1.43,0-2.15Z"/>
    <path class="cls-2" d="M1437.72,289c-4.73,3.43-80.95,3.21-84.75-.1,2.19-.54,3.8-1.27,5.41-1.27,24.62-.07,49.24-.06,73.85,.01,1.5,0,3,.72,5.48,1.36Z"/>
    <path class="cls-2" d="M1346.67,263.63c-.16-1.6-.71-2.93-.27-3.68,.55-.95,1.88-1.48,2.93-2.09,21.01-12.15,42.02-24.29,63.04-36.42,.79-.46,1.59-1.03,2.45-1.22,.91-.19,1.91,.03,2.87,.07-.28,.93-.42,1.94-.9,2.75-.36,.6-1.15,.99-1.8,1.37-21.56,12.42-43.12,24.82-64.69,37.22-.91,.53-1.84,1.02-3.63,2.01Z"/>
    <path class="cls-2" d="M1180.01,219.45c3.48,1.92,6.85,3.71,10.15,5.61,18.89,10.91,37.77,21.84,56.65,32.77,.53,.31,1.24,.49,1.54,.95,.66,1,1.11,2.14,1.65,3.22-1.16,0-2.55,.39-3.45-.1-5.51-2.96-10.92-6.1-16.34-9.22-16.25-9.37-32.49-18.75-48.72-28.16-1.04-.6-2.05-1.35-2.83-2.24-.37-.42-.34-1.42-.12-2.03,.14-.39,.96-.54,1.48-.8Z"/>
    <path class="cls-2" d="M1230.17,169.34c.97,1.26,2.1,2.44,2.89,3.81,10.01,17.3,19.97,34.64,29.95,51.96,2.36,4.1,4.83,8.15,7.03,12.34,.58,1.1,.31,2.65,.42,3.99-1.23-.77-2.98-1.24-3.63-2.36-9.88-16.86-19.63-33.8-29.39-50.72-2.82-4.89-5.71-9.74-8.37-14.72-.57-1.07-.32-2.59-.44-3.91,.51-.13,1.03-.26,1.54-.39Z"/>
    <path class="cls-2" d="M1327.17,242.28c-.92-.53-1.88-.83-1.87-1.11,.02-1.13,.06-2.42,.59-3.37,4.04-7.2,8.2-14.33,12.32-21.49,8.16-14.17,16.26-28.36,24.53-42.46,.95-1.62,2.84-2.7,4.29-4.03-.37,2-.24,4.29-1.19,5.96-12.03,21.1-24.22,42.12-36.38,63.15-.65,1.13-1.48,2.17-2.29,3.35Z"/>
    <path class="cls-2" d="M1299.87,192.95c0,12.26,.06,24.51-.08,36.77-.02,1.46-1.18,2.91-1.81,4.37-.58-1.36-1.65-2.71-1.66-4.07-.1-24.82-.06-49.64-.06-74.46,0-.31-.1-.66,.02-.91,.51-1.1,1.08-2.18,1.63-3.27,.65,1.14,1.85,2.27,1.86,3.42,.13,12.72,.08,25.43,.08,38.15h.02Z"/>
    <path class="cls-2" d="M1242.47,276.62c-8.65-2.32-16.75-4.49-24.84-6.65-4.41-1.18-8.87-2.23-13.23-3.59-1.09-.34-1.87-1.65-2.79-2.52,1.28-.35,2.7-1.25,3.82-.96,12.25,3.12,24.46,6.39,36.64,9.77,.98,.27,1.65,1.68,2.46,2.56-.77,.52-1.53,1.04-2.06,1.39Z"/>
    <path class="cls-2" d="M1352.15,278.35c-.2-1.07-.77-2.23-.51-3.17,.26-.94,1.2-2.1,2.09-2.38,3.92-1.24,7.94-2.2,11.92-3.25,8.4-2.21,16.8-4.48,25.23-6.55,1.04-.26,2.33,.5,3.51,.79-.83,.91-1.5,2.36-2.5,2.64-12.35,3.41-24.75,6.66-37.13,9.94-.3,.08-.59,.17-.88,.26-.58,.58-1.15,1.15-1.73,1.73Z"/>
    <path class="cls-2" d="M1259.67,249.01c-.48,.65-.93,1.72-1.33,1.7-.94-.04-2.1-.34-2.76-.97-3.54-3.37-6.96-6.87-10.42-10.34-5.72-5.74-11.49-11.43-17.09-17.28-.65-.68-.38-2.22-.54-3.37,1.05,.23,2.45,.11,3.1,.75,9.25,9.12,18.4,18.35,27.57,27.56,.52,.52,.9,1.19,1.48,1.95Z"/>
    <path class="cls-2" d="M1369.58,220.37c-.85,1-1.49,1.86-2.24,2.61-8.75,8.77-17.47,17.56-26.32,26.22-.87,.85-2.49,.92-3.77,1.36,.38-1.27,.37-2.91,1.19-3.75,8.75-8.99,17.61-17.88,26.51-26.72,.75-.75,2.04-1.1,3.14-1.28,.38-.06,.94,.96,1.49,1.56Z"/>
    <path class="cls-2" d="M1272.31,191.49c1.37,2.21,2.24,3.11,2.54,4.17,3.4,12.35,6.75,24.72,9.99,37.12,.23,.88-.6,2.03-.94,3.05-.93-.73-2.45-1.29-2.7-2.2-3.48-12.5-6.82-25.03-10.05-37.59-.25-.97,.53-2.2,1.18-4.55Z"/>
    <path class="cls-2" d="M1325.36,194.97c-1.22,4.5-2.35,8.61-3.45,12.74-2.24,8.4-4.37,16.82-6.77,25.17-.34,1.19-1.93,2.01-2.94,3.01-.26-1.33-1.02-2.78-.71-3.97,3.02-11.65,6.21-23.26,9.37-34.88,.24-.88,.43-1.86,.97-2.55,.47-.6,1.45-1.27,2.08-1.16,.61,.1,1.06,1.15,1.45,1.64Z"/>
  </g>
  <g>
    <path d="M1294.67,474.21c-.65-1.55-1.28-3.12-1.96-4.66-5.77-13.09-11.64-26.15-17.23-39.32-.79-1.86-1-4.58-.24-6.37,3.28-7.72,6.96-15.28,10.68-22.8,.53-1.08,2-2.18,3.17-2.36,2.37-.37,4.84-.11,8.03-.11,0,5.27,.13,10.25-.12,15.22-.04,.88-1.53,1.95-2.58,2.47-7.97,3.94-8.79,12.72-1.88,18.17,1.71,1.34,3.46,3.83,3.53,5.85,.34,10.55,.15,21.11,.1,31.67,0,.68-.34,1.36-.52,2.04-.32,.07-.65,.13-.97,.2Z"/>
    <path d="M1300.39,473.92c-.17-1.28-.47-2.56-.47-3.84-.06-9.48-.06-18.96-.08-28.43,0-3.25,1.04-5.67,4-7.63,5.35-3.54,6.19-10.67,1.54-15.06-2.6-2.46-3.09-4.92-2.99-8.06,.12-3.92,.03-7.86,.03-11.67,4.99-1.54,7.3-.38,8.98,4.34,2.33,6.57,6.14,12.61,8.82,19.08,.92,2.22,1.4,5.6,.36,7.52-6.95,12.75-13.06,25.82-17.3,39.74-.44,1.46-1.18,2.83-1.79,4.24-.37-.07-.73-.15-1.1-.22Z"/>
    <path d="M1284.35,376.16h27.7c-.27,8.29-1.15,9.2-8.66,9.21-3.66,0-7.31,0-10.97,0-6.97,0-8.15-1.33-8.07-9.21Z"/>
    <path d="M1283.61,390.23h28.76c.19,.41,.38,.82,.56,1.23-1.57,.66-3.11,1.83-4.7,1.9-21.2,.92-23.25,.62-24.62-3.13Z"/>
  </g>
  <g>
    <path d="M1497.89,523.66c0-13.14,.04-12.99-12.64-9.53-50.81,13.86-102.55,21.52-154.97,23.83-76.32,3.36-151.49-5.22-225.35-25.46-7.83-2.15-9.67-.58-9.52,7.68,.42,22.97,.05,45.96,0,68.94-.03,15.23,3.7,20.83,17.79,24.53,56.83,14.92,114.41,24.24,173.21,24.74,19.23-1.06,38.53-1.4,57.68-3.31,48.55-4.85,96.47-14.48,144.78-21.13,7.02-.97,9.32-3.87,9.2-11.32-.44-26.31-.17-52.63-.17-78.95Z"/>
    <path d="M1076.5,414.57c2.52-.56,7.27,.71,7.1-4.56-.17-5.47-4.52-4.81-7.92-5.13-15.26-1.43-30.54-2.77-45.81-4.16-25.82-2.35-51.64-4.71-79.18-7.23,7.11,11.98,13.38,22.56,19.66,33.13,5.46,9.2,5.28,17.93-1.22,26.71-8.23,11.11-16.04,22.55-25.1,35.36,22.37,4.78,43.61,9.25,64.81,13.88,12.33,2.69,13.38,2.28,14.19-10.76,.96-15.53,1.13-31.11,1.87-46.66,.84-17.62,5.4-22.59,22.16-25.26,9.85-1.57,19.7-3.16,29.44-5.33Z"/>
    <path d="M1642.95,476.14c-5.56-6.19-9.94-13.49-15.35-19.84-9.85-11.56-10.59-19.15-1.99-31.59,6.6-9.55,13.05-19.18,18.55-31.03-15.9,1.47-30.62,2.86-45.35,4.19-26.25,2.37-52.51,4.66-78.75,7.13-3.22,.3-7.62-.53-7.47,5.4,.15,5.85,4.4,4.6,7.69,5.13,8.78,1.42,17.54,3.03,26.35,4.25,19.49,2.71,24.18,8.15,24.27,28.85,.06,15.19,.1,30.38-.05,45.57-.05,4.61,.29,7.73,6.08,7.58,21.45-.53,42.57-2.12,62.44-11.96,7.26-3.6,10.06-6.48,3.58-13.69Z"/>
    <path d="M1114.25,486.9c9.02-1.77,18.29-2.86,26.46-7.89,2.06-1.27,5.11-1.67,4.73-5.03-.35-3.01-2.7-3.85-5.38-4.42-35.41-7.56-70.81-15.22-106.94-23.02,0,30.06-.09,59.28,.07,88.51,.04,6.24,3.62,10.05,9.49,11.76,12.27,3.57,24.54,7.18,36.71,11.12,6.87,2.22,8.62-.2,8.29-7.22-.51-10.72-.51-21.5-.06-32.23,.93-22.06,5.91-27.52,26.64-31.58Z"/>
    <path d="M1455.03,470.02c-2.22,.49-5.26,.17-5.8,3.73-.65,4.24,2.8,4.61,5.2,5.82,11.08,5.58,23.37,6.13,35.08,9.09,14.87,3.76,19.6,10.26,19.21,25.93-.37,14.75-.92,29.49,.38,45.3,14.28-4.16,27.93-8.06,41.54-12.13,7.27-2.17,11.64-7.18,11.67-15.22,.12-28.15,.05-56.3,.05-85.83-36.4,7.89-71.87,15.55-107.32,23.31Z"/>
    <path d="M1556.95,428.91c-13.18-2.7-26.34-5.54-39.49-8.36-2.53-.54-5.42-1.29-5.56,2.61-.26,7.74-.2,15.5,0,23.25,.08,3.1,2.52,3.02,5.51,2.63,13.37-3.27,27.48-6.72,41.59-10.16,3.06-.75,3.72-2.9,3.34-5.81-.44-3.35-2.83-3.64-5.38-4.16Z"/>
    <path d="M1076.43,420.21c-12.39,2.87-24.77,5.85-37.23,8.36-3.71,.75-5.85,1.83-5.75,6.12,.11,4.7,3.36,4.83,6.54,5.5,9.68,2.06,19.31,4.39,29,6.4,14.2,2.95,14.27,7.14,14.12-11.47,0-2.95-.26-5.93,.06-8.84,.63-5.66-1.74-7.23-6.74-6.08Z"/>
    <path d="M1137.34,489.05c-10.45,3.34-21.16,5.79-31.76,8.62-2.31,.62-5.57,.28-5.79,3.65-.24,3.7,3.16,3.19,5.4,3.79,10.92,2.92,22.11,5.04,32.69,8.95,8.12,3,9.09-.11,8.38-7.03-.19-1.82-.03-3.69-.03-5.53h.04c0-1.84-.2-3.72,.03-5.53,1.04-8.05-2.15-9.11-8.97-6.93Z"/>
    <path d="M1493.98,501.24c-.3-2.75-2.83-2.86-4.9-3.41-13.04-3.46-26.07-6.98-39.69-10.63v29.4c13.81-3.94,27.09-7.74,40.38-11.49,2.09-.59,4.54-.93,4.21-3.87Z"/>
  </g>
  <g>
    <path class="cls-1" d="M1135.27,551.01l-9.57,27.92-7.3-2.5,9.57-27.92,7.3,2.5Z"/>
    <path class="cls-1" d="M1145.97,554.42l8.3,19.33,4.44-15.74,7.43,2.09-8.02,28.41-6.63-1.87-8.31-19.43-4.46,15.82-7.35-2.08,8.02-28.41,6.59,1.86Z"/>
    <path class="cls-1" d="M1201.05,576.32c-1.29-1.28-3.55-3.5-7.82-4.34-7.12-1.41-9.87,3.92-10.47,6.96-.84,4.28,1.03,8.65,6.3,9.68,1.3,.26,2.27,.23,3.16,.18l.67-3.42-3.41-.67,1.15-5.82,10.02,1.98-2.74,13.9c-1.61,.35-2.73,.57-4.34,.7-1.99,.14-4.53,.08-7.24-.45-7.38-1.46-13.33-7.29-11.27-17.73,.76-3.85,2.82-8.24,6.27-10.32,4.24-2.54,7.89-2.27,11.26-1.6,5.05,1,8.21,3.13,9.79,4.11l-1.35,6.84Z"/>
    <path class="cls-1" d="M1215.7,599.95c-9.92-1.41-13.32-9.51-12.24-17.07,1.08-7.55,6.59-14.34,16.51-12.93,9.66,1.38,13.37,9.12,12.25,17.02-1.14,8.03-6.93,14.34-16.52,12.97Zm1.07-7.51c4.23,.6,7.04-2.21,7.66-6.57,.61-4.32-1.3-7.8-5.53-8.4-4.16-.59-7.03,2.13-7.65,6.53-.63,4.4,1.37,7.86,5.52,8.45Z"/>
    <path class="cls-1" d="M1247.6,573.61c6.4,.58,9.13,2.71,10.86,4.66,2.21,2.48,3.88,6.61,3.39,12-.63,6.9-4.01,9.88-5.84,11.25-3.18,2.38-7.57,1.81-8.29,1.75l-13.37-1.21,2.67-29.4,10.58,.96Zm-5.01,23.05l3.28,.3c2.75,.25,7.48,.02,8.19-7.79,.71-7.82-3.86-9.37-6.61-9.62l-3.28-.3-1.58,17.41Z"/>
    <path class="cls-1" d="M1280.44,575.92l5.08,16.43,6.34-16.26,5.52,.08,5.73,16.44,5.81-16.26,7.9,.12-11.53,29.74-4.46-.07-6.39-17.5-7.07,17.29-4.5-.07-10.4-30.07,7.98,.12Z"/>
    <path class="cls-1" d="M1338.2,598.99l.22,5.92-19.27,.7-1.07-29.5,18.97-.69,.21,5.93-11.26,.41,.2,5.4,10.73-.39,.22,5.93-10.73,.39,.23,6.32,11.56-.42Z"/>
    <path class="cls-1" d="M1374.59,572.42l.65,7.17-9.34,.84,2,22.23-7.68,.69-2-22.23-9.34,.84-.65-7.17,26.37-2.38Z"/>
    <path class="cls-1" d="M1389.45,570.48c6.83-.89,9.71,4.58,10.15,7.91,.65,4.97-2.24,7.11-3.21,7.85,1.55,.81,2.42,1.27,5.05,5.98l3.38,6.02-8.21,1.07-2.66-4.93c-3.02-5.59-4.37-5.76-6.66-5.46l-.86,.11,1.49,11.42-7.65,1-3.81-29.27,13.01-1.7Zm-4.63,6.32l.92,7.05,1.65-.21c3.64-.47,4.79-1.33,4.43-4.05-.36-2.72-1.97-3.44-5.39-2.99l-1.61,.21Z"/>
    <path class="cls-1" d="M1409.27,567.56l2.38,13.79c1.04,6.02,3.87,7.96,7.18,7.39,3.24-.56,5.3-3.31,4.26-9.32l-2.38-13.84,7.6-1.31,2.77,16.07c1.81,10.49-5.37,14.73-10.99,15.7-5.63,.97-13.85-.62-15.65-11.1l-2.77-16.07,7.6-1.31Z"/>
    <path class="cls-1" d="M1450.64,568.76c-1.69-.85-4.95-2.39-8.17-1.71-2.07,.44-2.42,1.71-2.2,2.74,.25,1.19,1.17,1.67,3.52,2.38,5.57,1.67,9.33,2.98,10.39,8.01,1.17,5.5-2.1,9.62-7.61,10.79-.7,.15-4.22,.89-9.29-.44l-1.5-7.08c1.62,.73,5,2.24,8.33,1.54,3-.63,2.68-2.48,2.62-2.78-.36-1.71-2.34-2.27-4.58-2.82-3.88-.96-8.02-2.63-9.11-7.79-.95-4.48,1.08-8.96,7.26-10.27,4.7-.99,8.31,.38,8.91,.66l1.43,6.78Z"/>
    <path class="cls-1" d="M1476.32,553.25l1.72,6.99-9.11,2.24,5.34,21.67-7.49,1.85-5.34-21.67-9.11,2.24-1.72-6.98,25.7-6.34Z"/>
  </g>
  <g>
    <path class="cls-1" d="M1115.56,90.09c-1.38-.95-4.06-2.72-7.13-2.72-1.98,0-2.54,.95-2.54,1.8,0,.99,.74,1.52,2.75,2.47,4.76,2.26,7.94,3.92,7.94,8.08,0,4.55-3.77,7.27-9.03,7.27-.67,0-4.02,0-8.4-1.9v-5.86c1.34,.85,4.13,2.61,7.3,2.61,2.86,0,2.93-1.52,2.93-1.76,0-1.41-1.69-2.19-3.63-3-3.35-1.41-6.81-3.42-6.81-7.69,0-3.7,2.72-6.91,8.61-6.91,4.48,0,7.51,1.69,8.01,2.01v5.61Z"/>
    <path class="cls-1" d="M1142.66,104.87c-3.14,1.62-6.28,2.12-9.42,2.12-8.43,0-13.51-4.97-13.51-12.28,0-8.43,6.42-12.24,13.62-12.24,4.02,0,7.3,1.13,9.21,1.8v6.35c-1.34-.81-4.02-2.58-7.58-2.58-4.09,0-7.9,2.58-7.9,6.77,0,3.63,3.1,6.6,7.51,6.6,3.85,0,6.67-1.69,8.08-2.58v6.03Z"/>
    <path class="cls-1" d="M1154.69,97.35v9.31h-7.2v-23.88h7.2v8.78h10.83v-8.78h7.2v23.88h-7.2v-9.31h-10.83Z"/>
    <path class="cls-1" d="M1190.71,106.98c-9.35,0-13.55-6.1-13.55-12.28s4.2-12.24,13.55-12.24,13.55,5.79,13.55,12.24-4.52,12.28-13.55,12.28Zm0-6.14c3.99,0,6.21-2.58,6.21-6.14s-2.22-6.1-6.21-6.1-6.21,2.5-6.21,6.1,2.29,6.14,6.21,6.14Z"/>
    <path class="cls-1" d="M1220.74,106.98c-9.35,0-13.55-6.1-13.55-12.28s4.2-12.24,13.55-12.24,13.55,5.79,13.55,12.24-4.52,12.28-13.55,12.28Zm0-6.14c3.99,0,6.21-2.58,6.21-6.14s-2.22-6.1-6.21-6.1-6.21,2.5-6.21,6.1,2.29,6.14,6.21,6.14Z"/>
    <path class="cls-1" d="M1245.97,82.78v18.17h10.94v5.72h-18.13v-23.88h7.2Z"/>
    <path class="cls-1" d="M1282.17,94.92v5.75h-11.29v-5.75h11.29Z"/>
    <path class="cls-1" d="M1305.14,82.78v10.69l8.64-10.69h7.83l-8.89,11.18,10.34,12.7h-8.78l-9.14-11.18v11.18h-7.2v-23.88h7.2Z"/>
    <path class="cls-1" d="M1332.73,101.83l-1.98,4.83h-7.37l10.55-23.88h7.97l10.51,23.88h-7.37l-1.94-4.83h-10.37Zm8.71-4.16l-3.49-8.71-3.53,8.71h7.02Z"/>
    <path class="cls-1" d="M1358.31,82.78l4.97,13.23,5.68-13.23h5.15l5.57,13.23,5.19-13.23h7.37l-10.34,24.2h-4.16l-6.21-14.08-6.35,14.08h-4.2l-10.12-24.2h7.44Z"/>
    <path class="cls-1" d="M1400.09,101.83l-1.98,4.83h-7.37l10.55-23.88h7.97l10.51,23.88h-7.37l-1.94-4.83h-10.37Zm8.71-4.16l-3.49-8.71-3.53,8.71h7.02Z"/>
    <path class="cls-1" d="M1430.12,101.83l-1.98,4.83h-7.37l10.55-23.88h7.97l10.51,23.88h-7.37l-1.94-4.83h-10.37Zm8.71-4.16l-3.49-8.71-3.53,8.71h7.02Z"/>
    <path class="cls-1" d="M1460.18,82.78v18.17h10.94v5.72h-18.13v-23.88h7.2Z"/>
    <path class="cls-1" d="M1481.35,101.83l-1.98,4.83h-7.37l10.55-23.88h7.97l10.51,23.88h-7.37l-1.94-4.83h-10.37Zm8.71-4.16l-3.49-8.71-3.53,8.71h7.02Z"/>
  </g>
  <g>
    <path class="cls-1" d="M1127.65,46.89c-1.86-1.07-5.11-2.93-10.46-2.93-8.93,0-10.97,6.14-10.97,9.44,0,4.65,3.3,8.83,9.9,8.83,1.63,0,2.79-.23,3.86-.46v-3.72h-4.28v-6.32h12.55v15.11c-1.86,.7-3.16,1.16-5.07,1.63-2.37,.56-5.44,1.02-8.83,1.02-9.25,0-17.81-4.88-17.81-16.23,0-4.18,1.44-9.21,5.11-12.09,4.51-3.53,8.97-4,13.2-4,6.32,0,10.65,1.58,12.79,2.28v7.44Z"/>
    <path class="cls-1" d="M1148.76,69.49c-12.32,0-17.85-8.04-17.85-16.18s5.53-16.13,17.85-16.13,17.85,7.62,17.85,16.13-5.95,16.18-17.85,16.18Zm0-8.09c5.25,0,8.18-3.39,8.18-8.09s-2.93-8.04-8.18-8.04-8.18,3.3-8.18,8.04,3.02,8.09,8.18,8.09Z"/>
    <path class="cls-1" d="M1185.54,69.49c-12.32,0-17.85-8.04-17.85-16.18s5.53-16.13,17.85-16.13,17.85,7.62,17.85,16.13-5.95,16.18-17.85,16.18Zm0-8.09c5.25,0,8.18-3.39,8.18-8.09s-2.93-8.04-8.18-8.04-8.18,3.3-8.18,8.04,3.02,8.09,8.18,8.09Z"/>
    <path class="cls-1" d="M1219.57,37.59c7.9,0,11.48,2,13.81,3.91,2.98,2.42,5.49,6.65,5.49,12.41,0,7.39-3.81,10.88-5.9,12.51-3.63,2.84-9.07,2.65-9.95,2.65h-16.5v-31.48h13.06Zm-3.58,24.97h4.04c3.39,0,9.16-.7,9.16-9.07s-5.77-9.58-9.16-9.58h-4.04v18.64Z"/>
    <path class="cls-1" d="M1273.6,47.22c-1.81-1.26-5.35-3.58-9.39-3.58-2.6,0-3.35,1.26-3.35,2.37,0,1.3,.98,2,3.63,3.25,6.28,2.98,10.46,5.16,10.46,10.65,0,6-4.97,9.58-11.9,9.58-.88,0-5.3,0-11.07-2.51v-7.72c1.77,1.12,5.44,3.44,9.62,3.44,3.77,0,3.86-2,3.86-2.32,0-1.86-2.23-2.88-4.79-3.95-4.42-1.86-8.97-4.51-8.97-10.14,0-4.88,3.58-9.11,11.34-9.11,5.9,0,9.9,2.23,10.55,2.65v7.39Z"/>
    <path class="cls-1" d="M1288.11,56.79v12.27h-9.48v-31.48h9.48v11.58h14.27v-11.58h9.48v31.48h-9.48v-12.27h-14.27Z"/>
    <path class="cls-1" d="M1340.7,62.75v6.32h-23.71v-31.48h23.34v6.32h-13.85v5.77h13.2v6.32h-13.2v6.74h14.23Z"/>
    <path class="cls-1" d="M1359.99,37.59c8.79,0,11.53,5.72,11.53,9.9s-2.74,9.76-11.53,9.76h-6.23v11.81h-9.48v-31.48h15.71Zm-6.23,6.04v7.58h2.05c4.46,0,6.04-.65,6.04-3.67s-1.58-3.91-6.09-3.91h-2Z"/>
    <path class="cls-1" d="M1382.92,56.79v12.27h-9.48v-31.48h9.48v11.58h14.27v-11.58h9.48v31.48h-9.48v-12.27h-14.27Z"/>
    <path class="cls-1" d="M1435.51,62.75v6.32h-23.71v-31.48h23.34v6.32h-13.85v5.77h13.2v6.32h-13.2v6.74h14.23Z"/>
    <path class="cls-1" d="M1455.22,37.59c8.46,0,11.11,6.18,11.11,9.76,0,5.35-3.86,7.21-5.16,7.86,1.77,1.07,2.74,1.67,5.21,7.02l3.16,6.83h-10.18l-2.46-5.58c-2.79-6.32-4.42-6.7-7.25-6.7h-1.07v12.27h-9.48v-31.48h16.13Zm-6.65,6.04v7.58h2.05c4.51,0,6.04-.74,6.04-3.67s-1.86-3.91-6.09-3.91h-2Z"/>
    <path class="cls-1" d="M1484.14,37.59c7.9,0,11.48,2,13.81,3.91,2.98,2.42,5.49,6.65,5.49,12.41,0,7.39-3.81,10.88-5.9,12.51-3.63,2.84-9.07,2.65-9.95,2.65h-16.5v-31.48h13.06Zm-3.58,24.97h4.04c3.39,0,9.16-.7,9.16-9.07s-5.76-9.58-9.16-9.58h-4.04v18.64Z"/>
  </g>
</svg>